<svg xmlns="http://www.w3.org/2000/svg" xml:space="preserve" style="fill-rule:evenodd;clip-rule:evenodd;stroke-linejoin:round;stroke-miterlimit:2" viewBox="0 0 9834 3525"><path d="M9589.484 967.956c-3.363-19.288-16.569-41.221 7.738-29.067 2.108 1.054 66.667 33.333 29.167-4.167-.343-.343 3.238-26.853-43.056-50-43.53-21.765-137.962 3.705-179.167-37.5-19.759-19.759-26.147-9.481-45.833-29.167-21.349-21.349-27.582-12.305-48.611-33.333-41.444-41.444-36.69-44.214-62.5-95.833-.801-1.602-19.444-38.889-2.778-22.222 3.281 3.281 2.833-3.486 55.556-16.667 109.406-27.351 167.835 13.305 183.333 5.556 2.778-1.389 21.746 2.405 23.611 2.778 66.405 13.281 159.235-73.855 98.611-104.167-76.966-38.483-65.145-140.696-205.556-187.5-27.668-9.223-29.119.942-56.944-8.333-51.858-17.286-227.074 15.696-236.111 13.889-10.509-2.102-110.719 10.613-240.278-54.167-53.561-26.78-120.183-72.932-168.056-88.889-17.847-5.949-175-58.333-233.333-29.167-13.045 6.522-14.596-3.119-31.944 5.556-8.149 4.075-11.076-8.345-111.111 25-149.122 49.707-219.134-20.011-241.667-12.5-8.333 2.778-20.604-3.358-22.222-4.167-40.413-20.206-43.224-9.315-86.111-23.611-27.179-9.06 49.119 31.819 20.833 27.778-135.39-19.341-328.009 103.588-190.278 34.722 12.91-6.455 27.039 15.928 16.667 5.556-1.193-1.193-70.143 28.476-90.278 48.611-23.346 23.346-23.422 22.333-33.333 34.722l37.5-16.667c-64.603 64.603-90.979 122.91-87.5 126.389.283.283-5.731-4.693-2.778 4.167.813 2.438-11.077 19.478-6.944 23.611 1.408 1.408-20.593 7.064 1.389 18.056 4.006 2.003 1.548-5.609 51.389-22.222 12.5-4.167 60.12-27.977 65.278-30.556 13.889-6.944 28.238-17.706 30.556-19.444-18.494 24.658-18.207 23.763-40.278 45.833 69.68-24.886 67.283-28.086 133.333-61.111 2.894-1.447 55.556-27.778 38.889-11.111-.248.248-2.778 2.778-4.167 1.389-3.825-3.825-25.075 23.189-26.91 25.521 86.935-28.437 87.442-23.545 177.876-36.058-3.229 1.789-21.177 11.731-38.531 25.395 10.081-.417 113.513-4.695 125.065-16.247 6.169-6.169 10.861 3.028 23.611-9.722 37.194-37.194-21.202 20.008-9.722 88.889 3.345 20.071-3.28 39.391 11.111 25 13.571-13.571 11.52-39.624 15.278-20.833 9.823 49.116-77.192 53.581-98.611 75-13.46 13.46-.036 56.232 4.167 58.333 9.8 4.9-16.011 21.918 69.444 118.056l-11.111-9.722c24.461 27.519 27.224 25.564 36.111 61.111 7.407 29.63 16.843 39.066 19.444 41.667 1.272 1.272 21.714-38.478 18.056-5.556-7.298 65.683 60.541-8.085 54.167-20.833-.342-.684 15.158-40.397 4.167-51.389-3.951-3.951 6.802-9.575-47.655-91.705 18.372 8.994 186.799 91.451 254.6 23.649 23.409-23.409 29.573-28.76 52.778-5.556 1.389 1.389 62.589 31.989 68.056 34.722 93.964 46.982 116.931 18.387 112.5 36.111-1.887 7.549-13.542 54.167-2.778 97.222.222.889 16.316 44.42 11.111 2.778-1.649-13.188 12.937-24.484 6.944-12.5-1.157 2.315 2.423 16.638 2.778 18.056 6.756 27.024 88.361 222.75 95.833 215.278.987-.987 26.203 25.186 31.944 19.444 1.024-1.024.885 2.95 18.056 1.389 129.064-11.733 133.92 11.327 138.889 1.389 2.082-4.165-3.846-11.031 6.944-8.333 10.243 2.561 29.717 20.259 25 1.389-1.882-7.526 14.798 3.687 9.722-1.389-.458-.458 1.389 1.389 6.944 4.167 5.881 2.941 3.981 8.426 9.722 5.556 27.447-13.723-46.701-84.983-63.889-76.389-1.618.809-1.408-1.193-22.222-4.167-37.075-5.296-42.468 8.92-69.444-18.056-14.936-14.936-18.501-103.276 0-140.278 38.646-77.292 92.51-57.49 77.778-72.222-2.542-2.542 7.172-9.495 41.667 25 4.446 4.446 51.389 51.389 54.167 56.944 27.483 54.967 242.834 73.168 248.611 84.722 5.139 10.277 133.67 52.441 180.556 5.556 9.913-9.913 50.821 14.24 54.762 16.567Zm-2633.742 59.18c22.818 8.58 39.093 25.816 33.146 2.03-30.822-123.288-120.434-31.545-252.778-163.889-41.651-41.651-44.46-51.405-41.667-48.611 11.838 11.838-45.76-57.584-15.278-34.722 6.016 4.512 6.768-.391 91.667 20.833 3.787.947 37.963 9.491 48.611 4.167 17.756-8.878 20.093 1.759 37.5-6.944 11.945-5.972 13.998 4.557 25-2.778 46.771-31.18 138.66 18.285 197.222-40.278 6.944-6.944 26.828-4.459 29.167-4.167 34.177 4.272 35.964 2.485 34.722 0-10.648-21.296-6.917-25.028-8.333-23.611-.478.478 1.852-1.852 8.333 1.389 2.224 1.112 57.02 6.982 26.389-8.333-3.005-1.502 4.708-6.403-23.611-34.722-46.248-46.248-107.678 31.7-240.278-12.5-10.093-3.364-111.667-37.222-120.833-55.556-4.611-9.223-36.689-11.517-6.944-26.389 104.884-52.442 202.568-15.173 213.889-20.833 2.601-1.301 1.818 9.066 36.111 4.167 7.068-1.01 59.954-8.565 83.333-31.944 56.137-56.137 5.977-64.857-29.167-100-2.621-2.621 3.484 7.651 1.389 5.556-29.63-29.63-60.833-106.111-115.278-133.333-178.551-89.275-327.792 12.493-347.222 2.778-.926-.463-74.124 17.837-80.556 19.444-20.912 5.228-46.105-5.284-51.389 0-1.366 1.366-167.067-5.061-234.722-38.889-157.551-78.776-400.415-67.081-387.5-54.167 8.404 8.404-139.308 3.196-131.944-4.167.66-.66-148.091-43.641-175-40.278-34.384 4.298-33.809-4.892-68.056 0-23.266 3.324-47.237 6.476-25 13.889 2.12.707 1.567-2.914 27.569 4.462-6.043 1-70 11.58-74.792 16.372-4.275 4.275-5.48-.025-72.222 22.222-3.5 1.167-.055 6.889-2.778 4.167-6.944-6.944-26.021 12.132-27.778 13.889-1.021 1.021-11.806 11.806-16.667 6.944-1.811-1.811 2.467 2.467 31.992-1.245-23.751 12.567-96.622 64.801-115.326 98.467 24.719-10.986 46.792-27.348 30.556-11.111-6.45 6.45-33.333 33.333-63.889 94.444-1.98 3.96-23.148 46.296-16.667 52.778 1.389 1.389-3.695 11.557-4.167 12.5-17.214 34.427 113.852-45.871 113.889-45.833 1.146 1.146 44.886-39.772 31.944-13.889-1.91 3.819-3.005 2.45-37.582 37.9 95.64-28.435 198.755-148.41 161.194-92.067-.75 1.125-38.889 58.333 2.778 16.667 5.694-5.694 5.556-5.556 88.889-47.222 16.667-8.333 20.588-4.412 19.444-5.556-.283-.283.694.694 4.167-2.778.724-.724 27.778-27.778 12.5 2.778-2.778 5.556-13.94 16.718-15.278 18.056-2.55 2.55 2.55 9.95 13.889-1.389 11.441-11.441 17.739 4.484 29.167-6.944 2.254-2.254 2.441-1.361 86.111-8.333 9.091-.758-9.844 18.178-11.111 19.444-32.665 32.665-20.272 108.614-109.722 63.889-12.281-6.14-23.664-11.202-16.667 1.389 2.658 4.784 5.9 9.228 8.558 14.011-74.798-12.656-55.745 27.585-103.002 122.1-5.157 10.313-17.225 75.558-27.778 86.111-11.806 11.806-8.763 14.848-9.722 13.889-2.114-2.114-.121 2.899-25 27.778-10.562 10.562-27.451 11.683-12.5 16.667 1.494.498 28.534 4.918 31.019 5.324-2.754 1.377-41.97 14.895-24.074 23.843 110.76 55.38 142.805-44.695 147.222-40.278 5.177 5.177 30.028-114.944 38.889-97.222.293.586 108.909 94.607 200 76.389 82.831-16.566 85.27-11.659 100-26.389 13.29-13.29 16.991-7.269 30.556-20.833 21.357-21.357 87.431-7.013 104.167 9.722 3.128 3.128 3.528 2.515 138.808 57.632-27.698-2.308-27.157-.287-54.364-2.077 152.756 64.545 315.146 22.792 318.333 29.167 3.36 6.721 40.278 80.556 37.5 86.111-.262.524 30.538 70.952 26.389 19.444-.469-5.825-1.493-11.596-1.963-17.421 11.13 18.834 6.964 21.034 22.796 36.866 2.515 2.515 22.669 46.515 16.704 1.573 56.472 72.857 178.674 81.305 208.296 110.927 25.665 25.665 78.875 42.764 79.167 43.056 8.256 8.256 49.818 5.811 54.167 5.556 42.255-2.486 41.679 1.395 79.461 20.286l-1.924-34.825c16.505 12.509 18.877 8.175 33.574 22.873 15.278 15.278 4.911-26.187 4.354-28.419Zm1085.893-795.413c22.1 3.664 171.793 67.967 295.865 26.61 132.029-44.01 232.05-12.736 187.5-30.556-18.943-7.577-44.339-.598-25-8.333 7.072-2.829 110.717-1.586 183.333 34.722 13.698 6.849 152.778 76.389 168.056 91.667 6.122 6.122 34.558 20.221 38.889 18.056 6.363-3.182 6.88 13.824 0 6.944-1.412-1.412-39.676 9.891-43.086 10.898 87.267 10.427 89.011-10.405 158.364 12.713 132.449 44.15 325.411-103.756 500 70.833 17.861 17.861 9.261 23.15 27.778 41.667 6.092 6.092-61.597-28.681-65.278-25-3.704 3.704-30.819-9.854-33.333-11.111-17.88-8.94-51.18 7.153-83.333-25-30.939-30.939-91 2.056-79.167 13.889 9.778 9.778-10.552-6.205-166.667 45.833-4.818 1.606-120.833 40.278-62.5 11.111 4.382-2.191 42.256-21.128 52.907-30.846-98.304 9.83-119.095 51.716-291.892 71.172 6.177-2.65 88.942-38.149 73.707-40.326-22.989-3.284-22.569-1.736-44.444 5.556-16.566 5.522-16.711-2.305-33.333 1.389-50.365 11.192-58.779-6.796-79.167 0-8.25 2.75-8.733-9.323-15.278-2.778-1.682 1.682-13.015-4.292-4.167-5.556 2.113-.302 85.556-12.222 16.667-20.833-7.557-.945-48.417-1.436-108.333-34.722 5.013.418 111.111 9.259 62.5-6.944-97.582-32.527-141.63-61.129-152.778-55.556-5.169 2.584-1.821-7.377 1.389-4.167 13.703 13.703 18.202-8.644 63.889 2.778 39.891 9.973-42.641-32.152-56.944-25-6.273 3.137-6.024-1.287-87.065-10.291 11.074-4.757 111.378-35.683 48.176-23.042-36.859 7.372-38.274-11.597-130.366 10.985 3.524-2.646 40.348-30.3 48.422-26.263 2.764 1.382 5.382-6.539 4.167-6.944-5.565-1.855-140.529 23.863-148.611 31.944-6.378 6.378-9.304-3.196-15.278 2.778-3.606 3.606 13.472-13.472 52.856-35.639-37.017-.963-143.094 31.453-109.801 14.806 58.775-29.387-22.339 11.776-86.111-4.167-3.928-.982-38.146 3.424-29.167-5.556 2.046-2.046 2.868 3.104 34.638-10.438-140.41-21.889-146.431 16.7-163.805-.673-7.946-7.946 85.609-18.227 26.389-23.611-55.762-5.069-183.311 41.644-218.056 76.389-30.604 30.604 18.75-39.236 73.611-66.667 12.797-6.398 7.938-24.007 18.056-13.889 4.167 4.167 16.896-8.562 18.056-9.722.926-.926 33.209-8.997 36.111-9.722 9.259-2.315 16.856-9.912 18.056-11.111 3.595-3.595 10.524-2.671 9.722-2.778-3.194-.426-2.984 0-40.278 0 46.089-9.703 90.875-13.399 184.938 4.198l-30.803-19.696Zm-2661.08 39.11c.641-.148 112.536-35.761 175-30.556 1.676.14 38.889 3.241 20.833-2.778-84.248-28.083 88.843 9.005 112.5 20.833 23.228 11.614 167.124 31.013 156.944 20.833-1.526-1.526 2.431 2.431 26.389-5.556 92.38-30.793 316.815 22.074 308.333 30.556-.423.423 108.337 43.054 113.889 40.278.034-.017 3.313 6.25 88.649 18.895-57.221 25.594-60.363 27.447-56.705 31.105 3.056 3.056 19.213-.984 20.833-1.389 7.923-1.981 94.444-23.611 98.611-26.389 7.121-4.747 8.845 29.922 106.944-2.778 34.19-11.397 35.57-2.597 69.444-13.889 15.264-5.088 108.333-36.111 195.833-45.833 28.878-3.209 151.532 22.508 168.056 55.556 1.389 2.778 29.333 30.722 31.944 33.333 15.677 15.677 32.487 39.16 18.056 31.944-121.369-60.685-144.186-21.964-172.222-50-33.224-33.224-92.238-7.516-79.167 5.556 11.867 11.867-25.447-1.165-188.889 80.556-24.122 12.061-51.112 28.89-31.944 9.722 36.052-36.052 44.735-31.654 41.667-34.722-12.499-12.499-69.003 35.196-159.722 80.556-8.84 4.42-141.667 70.833-115.278 44.444 7.032-7.032 10.241-1.908 31.944-23.611 2.012-2.012 18.147-6.554 29.167-26.389-6.734 1.683-105.228 39.318-112.5 37.5-5.937-1.484-5.511 6.082-76.389 4.167-6.748-.182-36.34 2.14-11.111-4.167 63.547-15.887 66.673-17.582 63.889-22.222-2.025-3.376-29.621 11.422-72.222-2.778-6.874-2.291-10.07 8.217-68.056-11.111-92.694-30.898-97.824-39.151-90.278-41.667 2.077-.692 15.044 7.344 50 4.167 18.719-1.702-122.979-55.872-131.944-51.389-1.738.869-7.774-9.536 4.167-5.556.435.145 3.125 1.042 5.556-1.389 2.83-2.83 3.405-1.389 50-1.389-65.486-23.813-64.994-25.801-145.482-26.769 18.128-5.81 53.332-20.332 57.828-21.842-69.973-4.143-82.919 3.414-122.5 15.252 3.017-2.586 36.864-31.598 42.099-26.363.181.181 5.961-5.316 4.167-5.556-11.802-1.574-65.532-1.135-79.167 12.5-7.245 7.245-10.364-.748-18.056 6.944-.478.478-4.167 4.167-8.333 1.389-10.167-6.778 55.521-37.839 60.797-40.334-36.747-2.387-70.161-16.096-77.464-12.444-.164.082-13.922-5.523-16.667-2.778-3.241 3.241-37.101-3.531-40.278-4.167-3.053-.611-29.762-5.952-38.889-1.389-12.583 6.291-14.043-3.395-26.389 2.778-11.204 5.602 5.579-11.088 8.333-8.333 7.412 7.412 6.636-14.197 13.889-6.944 4.508 4.508 14.76-4.187 11.111-5.556-62.358-23.384-139.196 50.307-91.667 2.778 8.56-8.56-19.517-1.317-23.611 2.778-3.131 3.131-6.185-6.63-52.778 16.667-26.408 13.204-38.142 23.506-31.944 11.111 1.127-2.253 2.717.061 23.611-20.833 6.243-6.243 14.865-9.585 6.944-6.944-106.259 35.42-101.698 43.725-194.444 105.556 44.21-58.947 49.856-52.634 101.389-104.167 3.525-3.525 87.953-34.385 15.278-27.778ZM2183.64 691.904c-4.434-11.185-29.26-73.813-121.14-89.126-10.349-1.725-127.531-4.465-133.333-8.333-.823-.549-70.54-15.571-56.944-29.167 1.868-1.868 2.732 1.412 30.556-12.5 115.536-57.768 234.714.004 284.722-25 7.589-3.795 68.614-48.053 61.111-55.556-2.033-2.033 4.358.383 2.778-2.778-3.352-6.703 15.697-12.081-6.944-34.722-24.953-24.953-30.033-17.533-55.556-43.056-21.885-21.885-23.477-22.356-22.222-23.611 7.961-7.961-87.023-106.488-102.778-98.611-2.455 1.227-1.705-2.42-31.944-12.5-99.95-33.317-265.562 8.617-273.611 16.667-7.091 7.091-227.251 49.25-233.333 47.222-1.519-.506-181.729 61.165-204.167 55.556-10.147-2.537-9.465 15.594-130.556 6.944-12.011-.858-148.077-10.577-150-12.5-10.592-10.592-195.871 26.727-263.889 9.722-3.679-.92-34.127-8.532-47.222-4.167-4.124 1.375-88.555-22.468-148.611-13.889-3.636.519-37.917 5.417-45.833 2.778-69.906-23.302 6.076 14.583 7.334 15.041-55.547 10.818-101.643 20.935-111.501 30.793l-22.222 22.222c-4.8 4.8-8.803-4.626-79.167 30.556-52.049 26.024-63.075 35.153-67.905 39.152l30.075-1.652c-7.777 4.78-96.136 59.089-99.669 55.556-8.697-8.697-7.778 17.222-16.667 8.333-3.472-3.472-16.856 9.912-18.056 11.111-15.123 15.123 51.933 21.678 50 23.611-7.747 7.747 119.466 5.577 109.722-4.167-.386-.386 9.939-4.383 4.167 1.389-20.139 20.139-21.557 21.166-19.444 22.222 19.705 9.852 163.75-65.139 158.333-59.722-15.465 15.465-13.954 15.342-29.167 30.556 33.984-9.268 171.562-84.062 147.222-59.722-15.632 15.632-20.427 15.684-15.278 20.833 2.222 2.222 34.571-29.849 125.293-41.403-33.883 23.603-77.334 67.055-83.627 73.347-59.52 59.52-149.644 8.155-186.111 26.389-5.556 2.778-33.331 30.553-36.111 33.333-35.509 35.509-38.899 29.172-83.333 51.389-43.845 21.922-49.932 9.655-77.778 37.5-.472.472-53.163-10.107-25 18.056.975.975-13.398 3.269-2.778 13.889 99.402 99.402 171.318-66.182 181.944-55.556 2.074 2.074-1.842-6.718 29.167-22.222 1.208-.604 123.962 1.038 148.611-23.611 5.863-5.863 47.509-33.047 44.444-36.111-.694-.694 21.666-23.055 23.611-25 9.722-9.722 16.481-14.228 18.056-15.278-31.61 82.187-134.751 124.064-186.111 106.944-12.104-4.035-34.375-11.458-133.333 87.5-39.224 39.224-79.141 49.974-115.278 86.111-3.732 3.732-44.936-3.269-19.444 22.222.314.314-.679-3.117 5.556 0 8.828 4.414-14.617 10.747-2.778 16.667l36.111 18.056c67.241 33.62 127.311-37.961 134.722-41.667 13.889-6.944 33.485-26.541 36.111-29.167 25.251-25.251 66.205-34.838 66.667-34.722.952.238 28.012-6.71 33.333-1.389 3.452 3.452 6.055-5.389 59.722 12.5 4.994 1.665 152.526 30.681 211.111 1.389 3.741-1.87 3.549.206 50-15.278 54.863-18.288 126.122-87.126 241.667-48.611 2.55.85 28.125 9.375 33.333 4.167.648-.648-2.405 9.536 11.111 2.778 7.639-3.819 21.896 3.309 23.611 4.167 35.432 17.716 169.737 11.886 125 20.833-2.377.475-.288 4.076-27.647 12.395 91.631 14.736 237.268-39.949 244.266-41.39-3 2.635-2.734 2.527-37.433 33.017 42.063-5.321 136.276-48.65 147.203-59.578 21.528-21.528 45.491 2.436 43.056 0l5.556 5.556c102.53 102.53 194.329 33.449 169.444 58.333-1.389 1.389-19.241 8.413-20.94 9.081 133.573 17.235 170.722-76.552 283.44-20.192 54.577 27.288 98.806-5.361 127.778 23.611.327.327-.414 1.182 0 1.389 27.94 13.97 13.008-15.28 10.057-33.908 1.974 1.904 58.951 56.868 30.861-14.917 49.183 42.721 12.682-18.408 2.137-28.953-5.029-5.029-31.481-31.481-77.778-43.056-10.185-2.546-14.185-.547-15.278 0-1.762.881-178.787-48.275-206.944-38.889-3.075 1.025-91.874-15.486-104.167-27.778-16.26-16.26-66.478-119.633-76.389-109.722-.652.652 12.487 15.264 1.389 4.167-9.649-9.649-8.956-8.732-19.444-18.056 91.585 33.304 56.296 87.176 137.5 127.778 14.806 7.403 177.456 17.734 193.056 33.333 8.048 8.048 63.518 12.456 123.918 21.071Zm2433.026-18.293c-6.213-5.437-43.889-38.403-90.278-50-14.286-3.571-19.249-1.917-20.833-1.389-8.333 2.778-52.423-3.521-56.944-4.167-81.814-11.688-80.067-17.117-106.944-30.556-12.876-6.438-24.96-7.659-12.5-13.889 2.958-1.479 30.53-6.932 52.778-18.056 46.072-23.036 270.276 16.109 252.778-1.389-1.583-1.583 15.876-.598 37.5-22.222 23.045-23.045 29.742-18.869 27.778-20.833-2.102-2.102 13.359-13.03 8.333-18.056-.33-.33 8.129-9.926 1.389-16.667-14.927-14.927-12.6-19.344-13.889-18.056-1.505 1.505-.579 3.009-1.389 1.389-9.571-19.141-44.919-16.228-72.222-70.833-18.434-36.868-103.3-114.755-115.278-102.778-1.301 1.301-.538-2.957-20.833-9.722-3.847-1.282-40-13.333-50-8.333-5.48 2.74-5.392-8.783-76.389-5.556-21.271.967-76.389 3.472-263.889 34.722-42.792 7.132-42.701-1.738-86.111 6.944-94.369 18.874-95.612 15.056-106.944 26.389-.896.896-1.786-2.579-15.278 4.167-53.219 26.61-307.037 15.031-380.556 2.778-3.949-.658-57.614 1.317-72.222 2.778-111.537 11.154-111.82 17.184-158.333 5.556-169.96-42.49-322.919-33.343-316.667-8.333.35 1.401 3.397-6.325 16.667 6.944 8.122 8.122-15.533-15.533-134.583 50 12.907 0 25.873-7.956 16.528 1.389-6.53 6.53-63.343 33.879-59.722 37.5 1.509 1.509-3.329-.837-20.833 16.667-5.321 5.321-13.263 8.871-5.556 6.944 42.62-10.655-32.449 38.385-26.389 44.444 9.686 9.686-22.612 5.165-12.5 15.278 2.778 2.778-17.653 23.208-19.444 25-10.725 10.725-2.593 15.093-13.889 26.389-.82.82-5.787 5.787-4.167 13.889.568 2.841 1.736 8.681 36.111-2.778 65.961-21.987 65.799-20.983 96.87-33.549-34.1 29.05-36.477 30.994-32.981 32.16 23.85 7.95 183.164-95.664 150-62.5-3.842 3.842-42.805 31.398-15.278 22.222 9.507-3.169 153.864-80.253 122.222-48.611-35.828 35.828 65.85-17.865 81.944-12.5 4.36 1.453 43.406-22.572 15.278 5.556-39.361 39.361-31.28 48.279-81.944 73.611-2.799 1.399-32.407 16.204-37.5 11.111-3.978-3.978-6.953 9.719-69.444-11.111-63.986-21.329-75.628 65.087-193.056 94.444-11.111 2.778-18.178 9.844-19.444 11.111-1.581 1.581-1.852.926-25 12.5-21.3 10.65-56.727-6.727-33.333 16.667 9.689 9.689-11.872 16.286 0 22.222 3.775 1.887 8.052 11.665 23.611 19.444 94.284 47.142 151.895-89.772 162.5-79.167.845.845 16.612-16.721 20.833-12.5.497.497-2.759-8.324 8.333-2.778 2.988 1.494 1.822-8.47 41.667-2.778 51.885 7.412 98.748-1.087 173.985-83.556-4.815 10.107-35.187 73.864-101.763 96.056-23.573 7.858-103.388-17.445-147.222 26.389-53.072 53.072-51.121 55.422-118.056 88.889-5.556 2.778-21.83 19.052-23.611 20.833-4.167 4.167-26.763 15.465-29.167 16.667-30.128 15.064-29.638 18.005-29.167 20.833.292 1.75 3.124-2.858 17.705 13.35l-15.527 4.063c101.601 129.364 236.873-86.082 274.211-67.413 3.682 1.841 4.861-12.731 51.389 2.778 184.311 61.437 193.776 21.553 205.556 33.333 3.887 3.887 75.866-14.232 80.556-23.611 4.711-9.421 11.927 1.146 16.667-8.333.249-.497.091-.046 50-25 7.456-3.728 20.828-22.42 87.5-31.944 36.064-5.152 218.201 51.803 240.278 44.444 16.652-5.551 17.19 10.849 33.333 2.778 17.421-8.71-3.257 9.833-38.099 20.626 17.738.771 149.154 6.485 220.043-28.959 1.59-.795 44.444-22.222 22.222 0-.817.817-6.128-.817-29.167 22.222-4.425 4.425 4.75 12.903 75-22.222 27.049-13.525 29.411-5.678 56.944-19.444 27.82-13.91 34.448-30.83 73.611 8.333 6.716 6.716 66.389 66.389 104.167 56.944.159-.04 36.71 7.734 43.056 1.389.699-.699 16.122 4.725 8.333 2.778-8.667-2.167-33.278 3.513-36.111 4.167-7.816 1.804 49.124 21.125 100 4.167 33.333-11.111 41.111-3.333 38.889-5.556-3.205-3.205 5.556 5.556 55.556-11.111 56.02-18.673 121.347 54.921 190.278 31.944 14.368-4.789 47.877 24.531 51.389 27.604l.308-38.086c12.682 12.347 13.53 10.43 26.081 22.981 16.261 16.261 6.121-30.235 5.519-38.085l21.179 18.177c-8.036-36.578-9.364-35.934-34.455-64.171l16.289 15.031c-57.81-58.967-152.64-50.229-216.865-82.341-41.019-20.51-166.827-3.098-208.333-86.111-13.824-27.648-1.722-35.055-55.556-88.889 37.92 21.668 30.983 28.205 61.111 58.333 2.57 2.57-.528 23.083 34.722 58.333 30.01 30.01 50.176 6.54 268.056 79.167.843.281 8.333 2.778 11.111 0 1.345-1.345.621 4.694 23.611 2.778 22.238-1.853 51.402 20.86 36.111-9.722-1.786-3.573-13.889-27.778-29.514-40.278l7.292 8.333ZM573.89 384.549c12.026.331 117.228 3.231 149.721 14.062 65.417 21.806 218.69-.091 237.5-2.778 42.598-6.085 305.506 29.179 422.222 0 3.485-.871 2.559-1.17 5.556-4.167.508-.508 14.891 2.163 18.056-4.167.962-1.923 15.306-3.972 16.667-4.167 20.828-2.975-.263 7.208-11.111 18.056-14.526 14.526-32.752 30.265-13.889 20.833 2.508-1.254 25.926-12.963 29.167-19.444.444-.889 2.479 3.077 11.111-5.556 7.245-7.245 10.905-1.182 26.389-16.667 18.307-18.307 25.388-5.943 43.056-23.611 11.392-11.392 208.183-31.795 227.778-51.389 1.239-1.239 220.414-64.098 309.722-19.444.233.116 44.298 6.359 113.889 95.833-94.841-43.109-106.101-5.828-200-52.778-34.259-17.13-52.404 1.015-55.556 4.167-11.583 11.583-3.746 17.845-18.056 25-7.472 3.736-9.921-5.489-101.389 25-20.833 6.944-27.304 13.415-29.167 15.278-4.342 4.342-11.129-5.538-29.167 12.5-1.94 1.94-2.796-2.074-31.944 12.5-42.996 21.498 26.996-29.948 27.778-29.167l-4.167-4.167c-3.128-3.128-3.433.327-50 23.611-19.444 9.722-34.86 25.138-37.5 27.778-17.044 17.044-22.128 8.239-38.889 25-39.881 39.881-78.168 68.242-85.417 73.611 2.417-4.511 42.468-79.274 22.917-59.722-81.944 81.944-118.795 104.055-130.556 111.111 10.609-14.146 34.132-55.172 36.938-60.066-100.134 62.584-100.444 60.864-135.549 72.566-56.614 18.871-61.896 15.458-59.722 11.111.648-1.296 2.861 2.694 15.278-9.722 17.344-17.344 24.248-6.192 41.667-23.611 4.749-4.749-7.355-7.512-8.333-5.556-1.652 3.304-4.224-2.749-43.056 16.667-40.603 20.301-185.482 9.128-201.573 7.887 11.726-5.488 47.749-20.008 51.924-21.691-43.077-1.195-42.251-2.892-108.685-11.196-25.934-3.242 5.006-5.251 30.065-12.2-6.198-1.576-70.965-18.044-78.676-14.188-17.63 8.815-85.299-31.538-33.333-5.556 4.163 2.081 3.431-3.134 57.407-9.428-87.979-38.848-175.579 8.155-157.407-10.017 6.194-6.194 9.376.346 22.222-12.5 7.88-7.88 11.543-.431 19.444-8.333 6.725-6.725 20.065-2.467 11.111-6.944-2.859-1.43-71.431 3.376-80.556 12.5-8.405 8.405-12.629-2.649-20.833 5.556-40.503 40.503 20.866-34.011 30.556-29.167 1.613.806 17.831-11.918 22.222-9.722 2.975 1.487 4.486-4.986 2.778-5.556-65.896-21.965-188.769-5.384-205.026-3.191 37.718-18.564 63.743-23.597 41.137-27.365-1.576-.263-43.621 8.145-47.222 6.944-17.592-5.864-110.314 39.045-119.467 43.478 16.935-23.882 34.226-20.386 23.634-30.978-4.684-4.684-123.126 66.182-94.444 37.5 43.249-43.249-51.953 17.318-91.667 30.556 71.965-62.969 85.741-45.094 94.444-62.5 1.222-2.444 3.525 2.743 30.556-15.278.277-.185 10-6.667 0-4.167-3.366.841-12.21 2.633-4.167-1.389 35.678-17.839 66.393-18.329 62.5-22.222-3.191-3.191 12.712 2.354 16.667-5.556 1.098-2.195 3.199 8.165 30.556-2.778 21.764-8.705 37.694-1.226 37.5-4.167-.475-7.202-13.135-9.638-13.61-16.839Zm2341.022 14.939c-50.861-13.446 25.767-14.365 19.81-20.322-4.596-4.596 122.763-19.727 94.444-29.167-28.346-9.449 20.461-33.426 259.722 26.389 31.821 7.955 191.797-30.252 363.889 4.167 18.41 3.682 19.794-7.174 34.722 2.778.412.275 67.723-1.255 73.611-1.389 58.452-1.328 137.582-20.916 130.556-13.889-8.93 8.93-47.974 30.368-36.111 33.333 9.358 2.339 63.501-40.611 116.667-58.333 7.871-2.624 72.222-24.074 102.778-13.889 9.739 3.246 320.002-63.331 345.833-37.5 1.189 1.189 1.618-2.026 20.833 2.778 60.351 15.088 76.739-5.497 177.083 115.972-84.413-30.389-84.16-32.595-92.361-29.861-8.333 2.778-18.039-2.075-19.444-2.778-23.682-11.841-52.021 3.535-80.556-25-19.745-19.745-73.864-9.975-65.278-1.389 9.051 9.051-19.219 7.169-9.722 16.667 12.725 12.725-17.505-17.505-216.217 62.051 23.4-28.794 77.847-49.724 39.828-37.051-18.224 6.075-116.667 38.889-204.167 126.389 10.597-31.79 14.319-29.056 28.808-60.193-62.351 36.793-67.748 67.857-119.086 93.526-19.288 9.644-38.879 26.379-23.611 11.111 3.941-3.941 26.838-26.838 40.972-56.349-87.106 49.775-84.984 52.501-121.528 64.683-5.397 1.799-81.25 27.083-69.444 15.278 21.981-21.981 63.415-26.863 51.389-38.889-.278-.278-21.729 5.085-23.611 5.556-16.337 4.084-140.972 35.243-209.722 18.056-29.185-7.296 58.336-18.576 29.167-22.222-60.665-7.583-59.889-6.452-120.163-14.579 39.311-5.958 39.934-6.581 42.385-9.033.423-.423 16.667-16.667-2.778-6.944-1.385.692-52.165-15.584-61.111-11.111-5.022 2.511-72.4-25.059-26.389-9.722 2.083.694 34.527-8.848 37.5-9.722-39.395-6.566-38.836-13.955-137.753-6.68 46.518-25.751 53.272-26.023 48.864-26.653-37.809-5.401-58 4.695-62.5 6.944-9.748 4.874-21.393-6.116-13.889 1.389 7.152 7.152-8.306-4.194-19.444 6.944-4.861 4.861-11.776-2.053-12.5-2.778-1.73-1.73 3.556.611 23.611-19.444 8.192-8.192 23.928 1.706 15.278-6.944-10.002-10.002 8.55 3.95 18.056-5.556 17.793-17.793-76.622-20.6-73.611-23.611 2.588-2.588-100.304 1.997-97.222-4.167.29-.579 1.323 1.455 6.944-4.167 7.166-7.166 10.551.56 18.056-6.944 23.206-23.206-13.62 7.497-44.444-2.778-11.999-4-108.68 36.458-102.778 30.556 5.808-5.808 6.878-5.622 5.556-6.944-3.553-3.553 22.535-5.243 11.111-16.667-7.934-7.934-8.566 13.656-16.667 5.556-4.591-4.591-96.883 48.272-87.5 38.889 1.783-1.783.783-1.74 20.486-23.958-56.213 15.169-76.325 40.016-113.282 60.188 28.509-39.095 86.805-76.888 104.93-82.574Zm-973.159 28.029c-64.833-36.018-27.026-124.858 19.063-72.074l3.876.642c-20.846-1.976-50.738-15.278-45.249 28.637 2.433 19.462 19.805 39.856 22.309 42.795Zm2483.588-50.218c-36.244-8.691-52.373-8.935-46.175 28.256 2.834 17.006 19.069 48.235-2.778 26.389-5.843-5.843-30.663-123.003 48.953-54.645m2385.77 78.256c0 10.208-18.302-24.666-15.278-45.833 10.137-70.96 52.438-23.272 47.222-18.056-1.449 1.449-.055-8.327-25-5.556-15.801 1.756-12.447 58.386-1.389 69.444 2.546 2.546-5.556-3.846-5.556 0ZM2119.444 407.87c-33.987-14.815-36.823-9.329-36.111-6.481 4.977 19.907 29.489 14.956 16.667 27.778-8.628 8.628-63.615-57.502-29.167-40.278 11.479 5.74 19.435-12.14 48.611 18.981m19.792-7.002c41.091 4.109 46.122.655 67.708 36.632-34.082-18.934-32.29-20.211-67.708-36.632m7339.931 8.854h-1.389v-1.389h1.389zl19.444 19.444H9500v1.389h-1.389v-1.389zm-4918.856 40.607c-29.484-6.188-25.777-11.63-46.422-32.274-9.321-9.321 65.001-1.113 55.556 8.333-8.309 8.309-36.346-22.009-31.944 0 .519 2.594.393 1.967 22.811 23.941Zm38.932-24.319c.955.219 25.224-5.71 61.869 30.934 19.354 19.354-7.08-3.54-61.869-30.934m2342.424 4.545c33.123 0 38.03-7.576 56.944 19.444-2.215-1.55-47.009-32.906-33.333-5.556 1.234 2.469 5.972 11.944 22.222 26.389-31.103-7.776-27.755-13.161-45.833-40.278Zm137.5 44.444c-4.727 0-1.955-4.45-51.389-29.167-5.194-2.597 18.19-10.976 44.444 15.278 1.487 1.487 1.626-2.541 2.778-1.389 6.698 6.698 3.995 8.162 11.111 15.278 9.881 9.881-2.954 3.99-4.167 2.778-1.694-1.694-1.209-.605-2.778-1.389-.414-.207.463-1.389 0-1.389Zm1401.852 67.593c24.139-66.737-15.254-137.452 2.315-102.315 48.557 97.114-14.536 228.605-161.111 219.444-8.429-.527-12.924-3.523-13.889-4.167-.845-.563-16.624 2.735-8.333-5.556.282-.282 18.622 7.356 36.111-1.389 4.267-2.134 10.125 6.541 19.444-2.778.235-.235 19.325 2.897 30.556-8.333 1.723-1.723 2.341.218 27.778-12.5 67.768-33.884 55.145-157.742 67.13-82.407Zm-6276.852-73.148c0-7.646-2.035-7.687 2.778-12.5 29.155-29.155 33.104-7.876 31.944-5.556-1.245 2.49-6.804-7.085-30.556 16.667-4.167 4.167-4.167 1.74-4.167 1.389Zm7106.944 63.889c0 16.495-39.843-30.513-22.222-56.944 2.689-4.033-.901-42.812 43.056-20.833.938.469 52.778 26.389 6.944 11.111-.927-.309-36.939-5.023-38.889 2.778-10.833 43.333 6.067 60.233 9.722 63.889.327.327 1.389-.463 1.389 0Zm-4637.5-47.222c0 2.821-15.476 9.721-11.111-5.556.958-3.354 25.646-7.688 27.778-5.556 18.743 18.743-16.667 2.97-16.667 11.111Zm-2598.538 7.968c56.284-16.244 76.077.246 95.76 10.088-25.764-8.588-25.851-5.427-95.76-10.088M7090.278 512.5c.587-2.934 5.642-28.212 31.944-19.444 8.773 2.924-12.041 5.512-31.944 19.444m2339.3-2.778c33.808 0 39.031-8.392 58.64 19.061-17.954-11.479-25.214-21.459-34.052-3.784-2.712 5.423 25.882 26.558 28.472 28.472-13.712-4.255-19.306 2.788-53.061-43.75Zm-4804.871 18.86c-77.534-16.293-104.857 1.568-88.596-14.693 15.686-15.686 81.965 11.93 88.596 14.693m4893.348-4.971c39.546 9.886 41.389 9.293 65.417 42.431-5.657-2.628-37.039-17.206-65.417-42.431M5721.111 675.555c182.106-26.015 226.824-151.231 230.278-147.778-26.212 104.848-92.093 105.982-111.111 125-10.28 10.28-15.533-2.523-26.389 8.333-.918.918-18.838-4.949-13.889 0 1.024 1.024-2.778-2.778-15.278 9.722-10.997 10.997-58.544 5.327-63.611 4.722Zm1327.5-129.722c-83.367-12.826-92.489-6.122-87.5-11.111 17.892-17.892 80.987 8.397 87.5 11.111M9588.889 587.5c0-.896-.685 17.028-11.111 1.389-8.28-12.42 44.817-22.595 30.556-8.333-6.653 6.653-13.664 1.276-16.667 2.778-4.523 2.261-2.778 7.718-2.778 4.167Zm-68.056 37.5c-13.448 0-12.361-8.38-25-4.167-.046.015-26.057-7.055-43.056-1.389-8.131 2.71-8.803-9.879 0-6.944 17.75 5.917 17.49-9.911 34.722-4.167 36.442 12.147 61.808 28.82 40.278 18.056-3.629-1.815-3.179-1.389-6.944-1.389M6693.415 858.843c-120.728-98.462-65.038-175.149-84.247-248.173 51.312 120.102-7.84 144.825 63.054 215.719 2.688 2.688-1.119 6.674 1.389 4.167 1.953-1.953.999 1.431 19.804 28.287m2243.807-73.287c39.514-33.869 43.878-27.767 80.833-64.722 71.53-71.53 48.147-104.631 58.333-94.444-7.109 99.525-67.918 123.542-139.167 159.167ZM3958.497 640.469c13.427-1.443 111.507-11.986 148.448 80.365-46.604-41.426-64.304-68.198-148.448-80.365m4799.837 128.976c0 18.401-10.303-6.073 1.389-23.611.926-1.389 7.7-21.711 8.333-23.611 3.477-10.43 49.312-63.188 47.222-65.278-2.083-2.083 4.922-9.089 5.556-9.722 46.065-46.065-62.5 104.191-62.5 122.222M1822.223 651.389c5.39 1.347 100 25 66.667 19.444-18.148-3.025-23.773 13.918-66.667-19.444m2455.99 2.344c3.707 2.325 3.775 1.732 50.955 19.878-4.376 0-30.276 0-50.955-19.878M3180.557 770.834c132.071-44.024 214.577-147.413 368.056-105.556-143.646 0-141.623 13.867-269.444 77.778-46.706 23.353-46.445 24.88-98.611 27.778Zm3170.139-119.097c41.551 28.33 67.747 32.977 86.798 127.045-31.229-61.271-33.722-72.816-86.798-127.045m-4722.917 60.764c1.543 0 1.534 1.534 0 0-37.8-37.8-60.229-38.712-102.778-47.222-7.085-1.417-13.189 4.155-9.722-2.778.458-.916 1.554 4.52 12.5-2.778 3.032-2.021 63.046 3.324 77.778 18.056 21.708 21.708 25.445 17.557 38.889 44.444 2.053 4.107 1.272 6.192-2.778 4.167-1.337-.669-.142-1.531-12.5-13.889zm-662.5-51.389c-24.684 32.912-28.856 32.255-26.389 34.722 2.535 2.535-21.565 14.621-56.944 50-8.333 8.333-50.97 29.652-55.556 31.944-2.412 1.206-4.915 2.137-2.778 0 16.608-16.608 138.676-119.657 141.667-116.667Zm6128.006 29.602c26.498 2.661 26.924-1.443 51.161 10.676 164.731 82.365-47.321-9.021-51.161-10.676m-1689.117 46.787c0-8.271 75.544-54.711 30.556-9.722-1.814 1.814-30.556 30.556-30.556 9.722m-3229.33-12.092c62.801 27.777 56.63 44.34 51.552 42.647-11.111-3.704-47.697-38.934-51.552-42.647m3229.33 39.869c56.027-28.013 62.058-31.061 59.722-26.389-1.149 2.297-8.421 26.389-59.722 26.389m2815.278 25c-5.729 0-5.814 3.908-9.722 0-7.143-7.143-3.218-30.694-2.778-33.333.034-.207-2.383-46.037 11.111-5.556 5.025 15.074 6.545 15.086 1.389 30.556-1.81 5.429 6.259 8.333 0 8.333m555.556 43.056c-9.844-65.624 13.538-76.74 8.333-81.944-2.033-2.033 4.358.383 2.778-2.778-.135-.27 11.252-16.243 12.5-12.5 2.531 7.593-8.413 6.034-23.611 97.222m-504.167-29.167c-4.557 0-5.722 6.278-6.944 1.389-6.622-26.488-4.189-26.322 0-38.889 6.477-19.432-3.409-40.909 11.111-26.389 7.127 7.127-3.04 63.889-4.167 63.889M798.613 776.389c0-1.024 1.296.093 9.722-8.333 6.319-6.319 17.465-.591 11.111-6.944-1.278-1.278 51.099-35.822 30.556-15.278-23.626 23.626-29.79 20.21-27.778 22.222 1.133 1.133-2.778-2.778-16.667 11.111-1.059 1.059-6.944-1.375-6.944-2.778m1363.889-33.333c43.75 14.583 53.665 44.327 55.556 50-28.193-25.06-32.738-19.577-55.556-50m6086.111 51.389c0 85.24-19.193-47.791-6.944-41.667 12.638 6.319 6.944 9.362 6.944 41.667m-3568.056 4.167c2.28 0-2.219-.831-20.833-19.444-1.279-1.279-15.972-15.972-15.278-16.667 13.56-13.56 58.508 55.73 36.111 33.333-.579-.579-1.968.81-1.389 1.389zm726.839-23.461c36.167-4.864 34.741-8.17 69.996-15.747-12.971 6.352-29.337 28.23-69.996 15.747m-3277.562-14.354c35.149 5.733 48.012 17.662 62.964 49.863-32.964-23.086-33.608-21.325-62.964-49.863m2536.833 57.259c-2.115-2.38-122.222-137.5-19.444-34.722 10.755 10.755 17.221 7.284 25.794 46.032l-17.46-21.032 11.111 9.722Zm-75.383-35.409c19.741 16.133 39.254 7.523 46.216 49.298-22.759-17.702-42.994-44.957-46.216-49.298m-1874.617 36.798c0 15.382-30.766-3.044-20.833-1.389 16.667 2.778 38.476-4.492 41.667-5.556 26.546-8.849 24.967 2.81 23.611 4.167-1.737 1.737-33.843 12.373-38.889 11.111-3.359-.84-5.556-22.645-5.556-8.333m3933.333 0h-1.389v-1.389H6650zc1.997 1.775 12.5 11.111 23.611 23.611H6675v1.389h-1.389v-1.389c-12.5-11.111-21.836-21.615-23.611-23.611m-3956.944 27.778c40.402 0 83.792-6.015 68.056 9.722-16.204 16.204-63.136-7.263-68.056-9.722m-2450 34.722c0 5.034-55.87 6.586-23.611-4.167 3.274-1.091 60.417-20.139 43.056-2.778-1.094 1.094-12.5 12.5-18.056 6.944-.327-.327-1.389-.463-1.389 0Zm9369.485 46.691c-48.902-14.707-77.24-41.406-47.263-31.413 28.252 9.417 29.393 7.783 47.263 31.413M281.503 898.248c-4.529 3.397-44.4 33.3-70.392 7.308-1.9-1.9 8.333 8.333 33.333-4.167 13.237-6.619 14.417 5.291 27.778-1.389.676-.338 5.556-2.778 9.281-1.752M6912.5 970.834c9.492 1.898 40.482 1.604 55.556 43.056-4.822-2.893-31.25-18.75-55.556-43.056m-23.611 19.444c20.907 10.454 35.415-2.82 53.426 45.972-27.178-23.254-31.431-17.693-53.426-45.972m-36.111 15.278c.78.39 34.451.846 50 31.944 6.385 12.771-26.026-7.97-50-31.944m2166.667 19.792c48.289 6.036 64.703 60.189 40.278 35.764-19.274-19.274-18.698-19.039-40.278-35.764m6.944 34.375c0-3.128-69.847-54.368-8.333-23.611 23.993 11.996 27.773 44.434 18.056 25-.502-1.004-2.772 2.783-4.167 1.389-2.502-2.502-5.556 1.442-5.556-2.778m-59.028-17.824c2.371 1.739 21.57 2.631 25.694 10.88a9.46 9.46 0 0 0 4.167 4.167c14.251 7.126 11.247 26.525 0 15.278-15.57-15.57-17.582-12.588-29.861-30.324ZM1897.222 2173.612c-20.267-20.267-107.849-151.939-104.167-166.667 1.796-7.183-10.098-11.749 2.778-37.5 20.193-40.387 2.43-85.417 43.056-112.5 60.81-40.54 72.414-31.753 68.056-36.111-.939-.939 43.423-11.478 48.611-16.667 1.16-1.16 10.708 4.569 19.444-4.167 1.081-1.081.83-.619 76.389-2.778 38.52-1.101 111.842 35.381 159.722-12.5 12.644-12.644 16.208-6.486 29.167-19.444 4.167-4.167 12.909-21.651 13.889-23.611 5.345-10.691 10.099-14.901-20.833-45.833-.248-.248 1.996 4.47-4.167 1.389-8.333-4.167-41.051-36.885-44.444-40.278-15.868-15.868-12.45-29.117-47.222-63.889-.324-.324 6.586 2.24 1.389-5.556-37.713-56.57-197.719-90.029-247.222-65.278-3.711 1.855-4.355-4.814-51.389 6.944-31.923 7.981-105.526 37.51-226.389-2.778-115.473-38.491-101.536-63.962-209.722-118.056-150.115-75.057-327.423-43.41-356.944-13.889-5.627 5.627-8.191-2.92-13.889 2.778-4.177 4.177-111.992 50.474-125 47.222-2.212-.553-28.695 7.18-34.722 4.167-5.219-2.61-38.594 3.62-106.944-30.556-23.03-11.515-87.663-52.623-126.416-58.687l19.088 23.883c-30.56-4.322-63.325-20.777-92.672-16.584-7.694 1.099-47.032-6.345-65.278 2.778-6.075 3.038-7.359-2.64-81.944 22.222-6.25 2.083-12.93 8.763-13.889 9.722-1.389 1.389-21.699 11.544-23.611 12.5-33.901 16.95 39.53-13.034 33.333 5.556-.726 2.179-19.377-1.456-45.833 25-11.055 11.055-30.41 1.534-19.444 12.5.667.667 0 0-8.333 8.333-49.61 49.61-53.683 50.484-50 54.167 2.778 2.778-4.853 10.408-5.556 11.111-17.812 17.812-27.614 44.363-16.667 38.889 3.7-1.85 22.804-.291 44.444-11.111 17.586-8.793 20.02 4.573 37.5-4.167 1.431-.716 81.558-20.447 73.611-12.5-7.738 7.738-49.698 27.104-54.167 29.167 146.622-7.717 290.016-71.397 186.111-19.444-11.646 5.823-24.524 10.655-18.056 13.889 16.878 8.439 17.381-2.357 36.111 1.389 2.724.545 21.701 4.34 34.722 0 20.359-6.786 19.07 14.014 40.278 6.944.834-.278 35.702 10.132 38.889 6.944 2.315-2.315 9.019 1.038 9.722 1.389 7.286 3.643 53.25 18.868 16.667 9.722-19.531-4.883-62.763 29.298-29.167 12.5.149-.075 70.69 21.168 95.833 11.111 6.398-2.559 14.745 6.516 38.889-5.556 9.032-4.516 9.913 3.377 19.444-1.389 24.494-12.247 7.604 10.311 9.722 16.667 10.254 30.763-11.806 33.332 2.778 62.5 10.035 20.07-7.714 46.602 8.333 30.556.46-.46 12.163 29.653 16.667 13.889 5.466-19.133-6.265-43.086 2.778-25 12.971 25.941 2.731 38.842 44.444 80.556.579.579 1.968-.81 1.389-1.389l-4.167-4.167c7.278 7.278 6.168 7.945 6.944 8.333 2.285 1.143 9.088 1.486 2.717-31.824 46.464 55.113 42.459 67.128 40.338 73.49-28.175 84.524-4.38 96.421 2.778 100 21.607 10.804 84.294 21.439 94.444 18.056 9.028-3.009 24.375 2.106 26.389 2.778 26.419 8.806 74.041-7.474 93.056 30.556.537 1.075 8.46 16.919 12.5 8.333 2.763-5.872 1.959-13.017 4.722-18.889 17.534 17.534 15.985 21.793 17.5 20.278 8.808-8.808 6.074-9.343 7.351-22.084 35.137 48.022 29.763-23.134 20.427-41.805-26.025-52.051-34.524-46.139-130.035-70.448 12.467-7.629 51.394-19.493 55.035-26.775 3.45-6.9 60.748 33.212 111.111 50 20.362 6.787 30.314 7.186 23.611 13.889-18.953 18.953-49.432 89.986-13.889 50-30.773 86.165-136.87 273.697-68.999 183.202-23.92 100.17-24.55 106.582 12.055 143.187 31.319 31.319 100.225-2.553 122.222 19.444 13.101 13.101 15.861-21.639 29.167-8.333.324.324-.363-1.571 5.556 1.389 8.328 4.164 10.756 9.399 13.889 0 3.178-9.535 4.627-11.575 13.889-6.944 10.695 5.347 17.264 16.085 15.278 4.167-6.459-38.753-14.588-34.032-41.667-61.111-27.718-27.718-82.054 4.385-59.722-40.278 2.744-5.488 25-50 40.278-65.278 85.432-85.432 86.985-83.076 98.611-88.889 83.697-41.848 93.672-35.955 90.278-29.167-2.201 4.402 25.526 52.587 20.833 66.667-.581 1.742 60.305 95.958 41.389 27.5 27.824 27.824 57.931 54.424 63.111 59l-9.094-10.61c66.86 59.224 156.579 148.317 85.15 76.887-4.994-4.994 3.898-7.213 16.667 5.556 89.163 89.163 157.369 23.431 205.556 55.556 19.982 13.321 13.614-22.935 13.221-25.176 4.935 4.75 36.53 31.515 35.39 22.398-3.179-25.428 13.592-3.869 16.667-6.944 8.105-8.105-30.545-85.032-108.333-76.389-25.154 2.795-57.062-25.568-61.111-29.167l9.722 11.111Zm1294.285-744.436c-97.646-63.336-165.854-68.306-244.772-56.834 20.497 7.019 21.263 2.629 40.765 12.38 19.156 9.578-70.969-10.976-141.667 59.722-3.831 3.831-31.101 31.101-50.5 45.122 13.287.676 134.288 6.834 165.95 10.842-45.741 13.348-67.963 8.057-51.561 16.258 24.104 12.052 105.934 5.745 152.778 29.167 3.804 1.902 72.222 36.111 44.444 29.167-115.759-28.94 19.391 24.894 26.389 38.889.13.26 31.985 18.096 30.556 16.667-4.394-4.394 62.402 35.466 69.444 31.944 17.182-8.591-10.011 13.601-23.611 0-1.353-1.353-1.732 0-23.92 0 35.918 35.053 108.55 52.241 154.475 43.056 3.73-.746 43.981-8.796 47.222-5.556.59.59 4.04-2.905 5.556-1.389 4.444 4.444 1.713 15.369 1.389 16.667-5.176 20.705 24.014 90.681 63.889 130.556 1.736 1.736 3.125.347 1.389-1.389l-6.944-6.944c2.923-2.923-1.941 8.752 41.667 30.556 17.794 8.897 19.659 10.012 19.444 8.333-.797-6.249-2.954-12.274-3.751-18.523 33.134 31.746 74.094 23.995 94.029 83.801 16.079 48.237-5.24 57.26 30.556 93.056 23.432 23.432 199.249-26.745 222.5-25.833-47.564 28.952-63.233 11.011-87.778 35.556l-62.5 62.5c-1.813 1.813-9.876-1.235-25 13.889-8.95 8.95-25.669-2.058-16.667 6.944.527.527-2.083-2.083-8.333 4.167-13.68 13.68-56.357-35.737-41.667 8.333 7.654 22.961-50.307-37.494-41.667 1.389 37.911 170.601 266.585 36.275 291.667-13.889 13.889-27.778 41.575-55.464 45.833-59.722 47.5-47.5 91.041-66.852 100-70.833-2.753 3.54-113.58 93.365-104.167 102.778 1.16 1.16-1.214 1.038-9.722 18.056-.607 1.213-6.019 12.037-9.722 13.889-1.384.692 1.15 1.867-6.944 18.056-4.83 9.659.8 14.477 8.333 6.944 9.722-9.722 11.897-7.548 11.111-8.333-2.123-2.123 3.968 3.968 1.389 37.5-2.121 27.574 20.248 92.252 30.556 81.944 1.144-1.144-1.039 5.791 19.444 5.556 170.965-1.965 196.249 5.972 180.556-9.722-.65-.65 3.217-12.061-18.056-33.333-42.266-42.266-79.543-15.655-98.611-34.722-27.48-27.48 74.218-163.282 70.833-166.667-3.072-3.072 52.227-64.858 62.5-59.722 5.042 2.521 8.886-16.95 15.278-4.167 1.852 3.704-6.136 11.691-6.944 12.5-39.717 39.717 71.665-40.835 66.667-45.833-1.389-1.389 6.269-9.046 6.944-9.722 57.68-57.68 52.658-93.175 63.889-81.944 2.157 2.157-.124-4.799 31.944-20.833 16.786-8.393 12.789-12.645 29.167-20.833 117.457-58.728 247.656-2.995 280.556-19.444 109.259-54.63 71.968-91.921 65.278-98.611-24.108-24.108-26.598-19.784-52.778-43.056l9.722 11.111c-38.997-34.664-62.687-117.192-161.111-150-141.418-47.139-316.28 67.054-355.556 27.778-1.021-1.021-56.705-16.427-66.667-26.389-13.209-13.209-17.837-5.337-30.556-18.056-10.483-10.483-163.644-95.461-256.944-90.278-24.268 1.348-95.205-9.342-150 18.056-12.138 6.069-13.529.515-37.5 12.5-26.88 13.44-27.339 15.716-29.167 13.889-6.674-6.674-150.894 128.57-191.667 101.389-4.597-3.065-33.933 3.567-81.944-44.444-1.607-1.607.454 4.62-1.389 2.778-17.371-17.371-92.18-86.14-121.186-96.152l16.86 29.494Zm3397.872 512.328c102.103-34.034 145.976-157.537 157.843-145.67 2.778 2.778 16.813-11.258 18.056-12.5 34.519-34.519 152.4-79.292 202.778-62.5 1.667.556 48.552 6.416 52.778 6.944 9.71 1.214 82.716 10.34 119.444-26.389 33.676-33.676 29.829-41.848 30.556-41.667 47.54 11.885-79.054-84.835-76.389-87.5.58-.58 7.685 4.908 2.778 0-32.332-32.332-22.471-39.138-61.111-77.778-74.426-74.426-227.304-57.876-262.5-40.278-2.339 1.17-22.917 11.458-31.944 6.944-2.222-1.111-16.649 3.698-18.056 4.167-151.263 50.421-279.854-70.146-293.056-56.944-2.25 2.25-.64-4.843-36.111-16.667-261.28-87.093-423.951 87.16-418.056 93.056l-66.667 66.667c-72.39 72.39-144.512-11.865-161.111-26.389l16.667 18.056c-5.89-5.154-43.457-42.721-48.611-48.611 11.479 11.479 11.505 10.116 23.611 22.222-6.668-7.621-50.351-57.544-88.226-90.769 2.86 18.538 11.641 37.794-2.051 24.103-5.755-5.755-7.591-.646-13.889-6.944-2.253-2.253-73.622-48.601-80.556-41.667-.648.648-9.835-9.609-15.278-4.167-.703.703.34-2.693-11.111-5.556-4.773-1.193-54.444-13.611-61.111-6.944-9.663 9.663 34.046 11.787 30.556 15.278-.458.458 1.389-1.389 6.944 4.167 5.682 5.682-109.673-5.605-138.889 23.611-.789.789-57.587 18.802-40.278 36.111 8.287 8.287 14.037-5.711 139.049 46.1-23.21-.368-22.021-7.04-45.994-3.045-29.204 4.867 111.72 50.098 164.002 101.181-41.169-9.712-39.895-10.494-61.469-13.19 109.87 82.561 200.556 116.434 197.467 116.176-3.04-.253-61.667-5.139-37.5 6.944 2.897 1.449 27.778 13.889 34.722 20.833 7.292 7.292 30.541 11.941 33.333 12.5 49.479 9.896 80.856-.563 87.5-2.778 37.083-12.361 39.256-5.842 40.278-2.778 23.597 70.792 21.273 72.661 75 126.389 26.921 26.921 39.25 27.582 63.377 34.942l-20.322-28.171c9.072 5.265 98.877 57.384 111.111 69.618 1.468 1.468 9.416-1.628-6.944-25 81.268 44.328 45.115 77.06 105.556 137.5 18.958 18.958 178.891 10.541 194.444 9.722-26.239 8.746-166.854 34.535-208.333-6.944-3.812-3.812-24.941-41.001-37.5-34.722-27.072 13.536-24.987-2.768-49.521-21.169-6.741 13.072-5.139 24.842-15.757 14.224l-2.778-2.778c-.801-.801-19.444-19.444-13.889-2.778 9.243 27.73-15.526 36.357 25.942 82.768l-10.201-8.926c22.249 26.83 71.917 43.234 81.481 40.046 25.691-8.564 26.956 10.329 52.778 0 30.533-12.213 36.646 2.243 59.722-20.833 37.77-37.77-38.345 67.211-45.833 59.722-7.353-7.353-5.148 15.685-12.5 8.333-8.684-8.684-7.757 17.243-16.667 8.333-3.042-3.042-36.601.899-16.667 20.833 13.844 13.844-34.519 2.981-20.833 16.667 5.131 5.131 45.04 45.04 81.944 38.889 61.973-10.329 126.619-71.992 122.222-76.389-.694-.694 1.213-2.602 1.389-2.778 41.068-41.068 55.356-143.255 86.111-112.5.531.531 24.483 7.428 26.62 8.044l-9.196-29.509c1.685 1.685 47.854 47.854 28.409 8.965-12.199-24.397 28.55 17.436 31.944 5.556 6.79-23.765-33.104-63.66-37.5-68.056-57.904-57.904-210.93 29.769-201.389-84.722 1.332-15.985 12.393-148.718-36.111-197.222-9.026-9.026-32.318-40.456-43.056-50 37.438 29.119 63.766 32.966 90.278 112.5 7.387 22.16 3.57 22.215 6.944 45.833 6.292 44.041-11.29 151.567 9.722 130.556 2.727-2.727 1.828 6.48 47.222 9.722 38.046 2.718 38.616-12.128 75 0 48.214 16.071 50.873 10.753 52.778 6.944 4.656-9.312 11.114-22.227 114.79-61.313-2.536 2.404-1.24 2.574-28.189 33.372ZM720.742 1432.658c-2.727-6.916-17.516-26.653-2.686-11.824 5.735 5.735 102.554 55.63 123.611 48.611 8.333-2.778 48.582 2.253 52.778 2.778 5.389.674 79.118-11.062 94.444-26.389 1.988-1.988 2.448-.816 33.333-11.111 180.809-60.27 202.295-20.894 197.222-36.111-.238-.714-25.227-3.233-27.778-8.333-.154-.309-13.505-2.979-12.5-2.778 17.968 3.594 17.997-4.649 36.111 1.389 3.923 1.308 4.415-6.188 51.389 5.556 19.484 4.871 162.963 40.741 227.778 105.556.879.879 43.19 30.623 56.944 37.5 15.485 7.743 36.722 5.352 19.444 11.111-3.527 1.176-3.721-1.092-45.664 8.638 87.294 16.314 123.488-3.754 166.497 17.751 61.103 30.551 351.601-134.84 468.494 81.287-8.746-3.376-99.044-38.234-112.939-31.287-2.431 1.215-24.295-2.429-26.389-2.778-43.863-7.31-67.272-49.395-90.278-26.389-9.965 9.965-28.246-.468-18.056 9.722 7.348 7.348-15.705 5.129-8.333 12.5 9.664 9.664-21.815 10.297-23.611 13.889-2.504 5.008-24.584-6.458-93.056 27.778-6.665 3.333-9.197-3.648-87.5 31.944 15.753-28.355 54.041-29.293 43.056-40.278-.229-.229-268.011 87.59-279.167 65.278-3.967-7.934 132.011-49.458 44.444-31.944-94.142 18.828-149.795-16.817-160.742-23.828 5.505.522 107.284 10.175 69.076-2.561-2.424-.808-19.735.549-48.611-13.889-6.095-3.047-75-37.5-77.778-34.722-1.832 1.832-.563-3.059-27.778-16.667-.535-.268-19.734-15.949 2.778-6.944 3.519 1.407 3.229-1.449 47.14 4.665-10.059-6.031-77.142-46.252-136.029-54.665-15.437-2.205-30.569 2.791-19.444-8.333 1.68-1.68 2.162-.155 29.167-5.556 14.368-2.874 30.353 2.643 18.056-5.556-31.87-21.247-147.216 11.105-130.556-5.556 6.944-6.944 33.093-15.661 36.111-16.667-29.835-2.295-30.394-4.226-119.956 31.936 13.78-18.104 54.327-44.955 25.511-30.547-35.204 17.602-36.466 12.677-72.222 30.556-3.052 1.526-2.082 2.965-36.586 21.914 2.713-3.83 14.043-19.828 39.553-43.323-80.899 27.19-81.878 29.84-130.745 26.965-5.38-.316-89.078-5.24-66.667-9.722 7.943-1.589 12.532 4.857 54.375-7.264-168.254-41.869-167.677-43.616-182.307-47.211l50.958-7.001c-129.231-33.124-131.044-29.797-260.526-1.023 36.333-21.8 76.695-46.943 161.088-51.86l-37.145-14.434c73.6-4.977 183.95 38.736 185.688 39.228Zm5377.741-5.831c181.073-81.138 304.963-2.881 415.406 52.341 7.899 3.949-54.005 11.628-30.556 19.444 8.022 2.674 22.092-11.137 77.778 0 45.058 9.012 46.014-2.733 90.278 8.333 43.511 10.878 203.158-82.449 326.389-20.833 62.676 31.338 54.519 41.187 101.007 92.763-9.111-3.154-101.857-35.259-116.285-31.652-1.759.44-55.537-8.296-56.944-11.111-17.366-34.732-85.716-13.494-77.778-5.556.694.694-1.213 2.602-1.389 2.778-9.976 9.976-3.554 16.166-16.667 19.444-110.65 27.663-125.815 47.031-182.056 65.778 24.378-20.594 21.974-22.905 50.683-38-86.872 10.587-176.421 64.371-206.127 56.944-4.276-1.069-38.815 12.426-23.611-2.778 1.301-1.301 15.278-15.278 20.833-9.722 2.778 2.778 9.124-3.568 9.722-4.167 12.5-12.5 16.302-8.698 15.278-9.722l-5.556-5.556c1.921 1.921-59.915 8.719-62.5 13.889-.696 1.391-1.332-3.019-19.444 0-6.251 1.042-65.476 10.913-79.167-2.778-2.344-2.344 2.778 2.778 40.278-9.722 52.857-17.619-15.12-4.782-22.222-8.333-8.305-4.152-9.993 4.129-114.286-20.238 40.381-13.46 91.804-20.385 49.008-21.429-8.832-.215-80.782-1.97-109.722 12.5-33.333 16.667-46.978 3.022-44.444 5.556.081.081 29.621-23.156 30.556-22.222 3.472 3.472 11.726-4.782 12.5-5.556 20.062-20.062-47.717.495-59.722 12.5-9.914 9.914-13.633 2.522-26.389 15.278-12.246 12.246-34.848 1.263-22.222 13.889.471.471-12.085 7.774-12.5 6.944-3.87-7.739 73.125-91.181 22.222-40.278-10.353 10.353-15.602 1.713-44.444 30.556-12.923 12.923-16.394 11.383-15.278 12.5 2.783 2.783-3.135.934-33.958 35.59 10.742-35.303 42.427-73.226 14.514-45.313l-63.889 63.889c1.389 1.389-7.548 10.325-8.333 11.111-7.562 7.562-20.589 8.905-11.111 4.167 4.246-2.123 13.764-31.128 17.684-41.518-2.353.941-167.596 103.195-81.996 33.004-71.807.637-73.252 6.753-138.716-22.512 20.059 2.731 19.667 1.741 69.407 3.153-75.651-35.073-71.231-41.704-142.768-84.626 25.415 5.446 23.776 8.851 44.917 15.898-16.171-18.086-15.512-17.166-32.109-33.491 7.946 9.169 23.101 24.356 25.163 26.422-6.884-6.074-70.547-62.238-85.193-76.885-.913-.913-23.678-13.822-23.611-13.889 1.715-1.715-53.953-29.381-58.333-25-1.343 1.343 3.221-13.422-22.222-8.333-12.242 2.448-.208-5.764 1.389-4.167 7.694 7.694 49.391-1.693 102.778 25 40.922 20.461 61.644 38.566 55.556 26.389-1.585-3.169-3.452-.272-29.167-33.333l20.833 20.833-20.833-20.833c70.513 29.035 95.908 86.409 90.278 63.889-10.371-41.482 8.479 8.479 38.889 38.889 15.55 15.55 19.211 9.489 34.722 25 12.251 12.251 74.118 35.858 112.5 16.667 36.614-18.307 36.369-18.313 65.278-47.222 101.935-101.935 126.657-87.232 118.056-95.833-.463-.463 19.144-10.266 20.833-11.111 35.185-17.593 42.663-10.114 40.278-12.5-2.841-2.841 18.938.882 11.111-6.944-3.744-3.744-4.244-1.276-44.573 1.826Zm3479.295 124.563c-44.508-38.944-39.45-89.864-143.056-141.667-44.831-22.416-179.585-17.637-200 2.778-.142.142-12.467-1.356-9.722 1.389 3.628 3.628-3.264.162-61.111 19.444-1.792.597-14.583 4.861-20.833 11.111-17.036 17.036-204.779 30.944-247.222 9.722-20.415-10.208-228.88-46.671-288.889-16.667-4.535 2.267-16.7-5.522-29.167 6.944-2.093 2.093-93.695 7.584-219.444 133.333-67.208 67.208-86.071 45.357-104.167 51.389-5.373 1.791-76.487-20.206-116.493-69.444 9.772 9.98 10.006 8.793 19.752 18.59-74.409-86.585-226.037-164.977-144.067-101.065-43.026-11.956-88.003-28.707-136.969-18.913-16.601 3.32-16.082-2.156-33.333 0-7.407.926-17.967 6.206-19.444 6.944-1.891.945-1.585-2.155-26.389 1.389-29.167 4.167-16.616 16.718-15.278 18.056 2.614 2.614 50.844 27.233 59.722 36.111 6.643 6.643 9.645-.077 16.667 6.944 16.092 16.092 53.965 14.981 25 22.222-3.385.846-2.215-3.232-43.056-6.944 71.714 50.2 79.859 37.189 145.833 95.833-3.953-1.437-106.944-38.889-51.389-11.111 1.899.949.554 1.943 18.056 19.444l-1.389-1.389c-25.621-25.621 58.568 50.235 40.278 31.944-.579-.579.81-1.968 1.389-1.389 61.574 61.574 94.684 49.88 77.778 58.333-4.848 2.424-59.245-20.356-34.722 4.167 28.774 28.774 156.841 98.663 251.389 51.389.901-.45 22.577 142.347 40.278 106.944 1.849-3.697-3.704 7.407 30.556 41.667 12.509 12.509 8.143 15.088 20.833 27.778 10.981 10.981 15.211 16.8 22.222 2.778 5.556-11.111 95.832 79.165 103.472 86.806-18.598-107.868 39.774 82.829 64.583 107.639 30.533 30.533 37.786 16.81 76.389 36.111 22.246 11.123 25.346-2.605 47.222 8.333 30.977 15.489 104.716 18.335 122.222 12.5 1.119-.373 16.966 3.867 27.778-6.944 16.545-16.545 63.866 30.486 50-11.111-3.9-11.701 50.538 15.816 29.167-5.556-15.683-15.683 14.828 7.844 19.444-1.389 1.126-2.252 3.867 8.221 2.778 2.778-18.749-93.743-136.008-51.783-162.5-69.444-2.37-1.58-2.867 2.733-33.333-12.5-42.464-21.232-73.339-86.927-56.944-136.111.213-.638-1.721-31.612 4.167-37.5 3.391-3.391-3.84-41.993 2.778-48.611 6.444-6.444 76.378 2.089 94.444-6.944 3.562-1.781-1.52 3.904 19.444 45.833 9.89 19.78 4.327 21.153 13.889 40.278.808 1.617 17.156 5.466 4.167 4.167-16.447-1.645-69.341 27.986-81.944 2.778-11.193-22.386 2.888 26.444-8.333 20.833-13.948-6.974-43.697-40.813-30.556-1.389.176.527-5.477 5.712 9.722 36.111 11.376 22.752 128.971 82.141 216.667-5.556 15.968-15.968 10.602-94.568 45.833-118.056 60.833-40.556 76.628-24.761 72.222-29.167-.865-.865 26.832-3.221 48.611-25 1.059-1.059 50.88-15.571 12.5-2.778-1.434.478 1.868 2.299-11.111 15.278l123.611-123.611c37.445-37.445 47.635-31.532 44.444-34.722-3.472-3.472 59.934-24.608 65.278-26.389 98.301-32.767 199.941 25.059 236.111-11.111 11.115-11.115 97.6-65.783 34.722-97.222-9.823-4.911-3.418-20.193-11.111-12.5-.157.157.687 2.076-2.778-1.389-12.324-12.324-12.444-11.218-25.49-22.794l8.824 10.294Zm-6606.944-131.944c105.511-11.723 165.241 37.464 127.778 0-18.26-18.26 9.372-.175 90.278 40.278.703.351 27.778 13.889 6.944-6.944-17.353-17.353 33.213 18.176 29.167 22.222-12.14 12.14 14.664-4.006 22.222 11.111 3.858 7.716 21.541 23.188 23.611 25l-8.908-10.393c6.828 6.072 77.664 69.07 97.797 59.004 2.502-1.251 1.864 8.274 34.722 4.167 6.421-.803 54.701-6.838 77.778-22.222 7.104-4.736 79.167-52.778 87.5-61.111 8.226-8.226 23.744 1.521 15.278-6.944-2.205-2.205 88.169-37.016 111.111-34.722 1.089.109 70.476.886 12.5-5.556-19.166-2.13-17.985-2.642-36.077-6.775 190.933-49.775 354.066 79.236 409.31 104.502-17.594 3.416-56.204-.144-44.066 11.995 8.925 8.925 10.964 1.803 22.222 5.556 12.082 4.027 24.13-7.981 18.056 4.167-2.038 4.076 7.54-15.079 56.944 1.389 100.769 33.59 247.413-67.96 308.333-37.5 2.811 1.405 3.394-3.318 38.889 5.556 59.614 14.904 70.086 9.033 143.001 100.731-99.12-25.037-100.337-20.372-108.279-24.342-16.921-8.461-41.859 5.363-75-27.778-21.344-21.344-83.322 6.956-70.833 19.444 8.737 8.737-44.412 13.857-51.389 20.833-4.406 4.406-7.83-3.029-72.222 29.167-27.778 13.889-37.554 23.665-40.278 26.389-4.861 4.861-25.469 10.481-27.778 11.111 23.244-29.886 31.445-25.499 29.167-27.778-5.133-5.133 19.757-3.854 9.722-13.889-1.739-1.739-2.08.693-29.167 9.722-8.34 2.78-98.611 32.87-105.556 30.556-5.044-1.681-4.009 6.93-65.278 12.5-2.366.215-38.194 3.472-29.167-5.556 2.124-2.124 114.471-40.375 30.556-26.389-71.574 11.929-132.671-6.478-143.704-9.802 25.948-4.372 25.745 1.447 50.648-4.087 16.772-3.727-9.598-15.34-18.056-11.111-6.944 3.472-20.604-3.358-22.222-4.167-30.294-15.147-162.968-44.329-97.222-36.111 6.433.804 42.175-2.445 45.833-2.778 20.71-1.883-32.899-28.724-161.432-16.334 30.992-17.218 31.384-14.433 64.209-28.11-86.6-9.622-82.117 16.335-144.444 33.333 26.293-35.057 32.256-34.051 29.167-36.111-11.999-7.999-126.984 74.206-100 47.222 14.7-14.7 33.853-44.964 15.278-26.389-2.915 2.915-6.212-3.511-25 15.278-22.08 22.08-25.365 17.031-47.222 38.889-48.206 48.206 6.019-30.629 6.843-32.197-85.712 64.177-190.033 25.136-205.498 19.348 34.774 2.286 33.879 3.096 67.791.246-57.562-16.402-157.389-81.3-167.747-92.953 106.969 40.113-26.158-37.039-29.167-43.056-.463-.926-14.033-7.711-15.278-8.333-43.061-21.53-107.296-30.73-141.667-40.278Zm5578.834 82.424c-26.644-1.508-60.158 3.067-53.834-3.257 6.497-6.497 180.908-59.369 193.056-47.222 3.382 3.382 5.675-15.238 59.722 2.778 2.749.916 25 8.333 36.111 2.778 6.111-3.056 75.501 20.074 81.944 22.222 12.5 4.167 14.41 2.257 15.278 1.389 1.094-1.094 1.028 1.269 18.056 6.944 9.664 3.221 55.35-1.981 23.611 13.889-98.98 49.49 130.726-30.386 150-11.111 1.732 1.732 78.099-17.734 75-20.833-4.792-4.792 237.317-90.461 311.111-16.667 11.019 11.019 13.68 6.736 25 18.056l26.389 26.389c1.449 1.449 54.167 54.167 5.556 25-1.387-.832-1.464.438-19.444-5.556-59.447-19.816-101.867-.625-141.132-35.684l12.855 14.462c-18.966-16.946-18.364-17.602-43.944-20.444-3.951-.439-31.579-3.509-44.444 22.222-3.946 7.892-1.902 8.59-9.722 12.5-16.988 8.494-67.736 13.57-94.444 40.278-4.167 4.167-13.982 9.074-15.278 9.722-33.564 16.782-29.165 23.148-63.889 34.722 43.282-43.282 50.891-40.776 47.222-44.444-8.147-8.147-118.179 58.993-221.114 117.338 23.635-40.965 49.924-49.639 41.948-57.615-1.394-1.394-103.634 69.711-112.5 65.278-4.167-2.083-25.672 8.669-27.778 9.722-13.024 6.512 76.09-63.045 25-37.5-67.794 33.897-114.334 31.499-113.889 31.944.926.926 7.705-2.464 8.333-2.778 25.463-12.731 42.517-27.654 45.833-30.556-135.556 33.889-160.013 9.431-151.389 18.056 1.336 1.336 1.237-1.313 20.833-11.111 2.626-1.313 23.611-11.806 31.944-18.056-47.054-3.921-90.467 14.482-129.167 22.222 28.777-28.777 68.893-43.195 34.722-37.5-87.166 14.528-172.721 99.11-109.722 36.111 20.308-20.308 37.83-21.363 22.222-29.167-8.603-4.302-79.676 50.509-93.056 63.889 6.132-27.596 11.041-24.874 25-50-64.992 28.885-131.04 117.635-111.111 77.778 1.634-3.268 3.635-.326 5.556-4.167 1.489-2.978 15.278-30.556 18.056-37.5-65.741 46.019-66.968 43.484-108.252 55.025 9.156-6.375 27.405-22.715 27.881-23.08-18.14-1.199-56.895 8.739-125.185-8.333-37.504-9.376 37.223-2.223 43.056-13.889 5.134-10.269-51.817 2.35-126.389-72.222-4.019-4.019-5.66-.104-9.722-4.167-2.761-2.761-2.989-12.289-8.333-6.944-2.92 2.92-2.679-7.589 4.167-4.167 43.391 21.696 42.89 20.922 46.528 22.917-11.707-11.707-11.767-10.378-22.917-21.528-6.944-6.944-15.982-17.167-17.333-18.694 16.723 16.683 16.659 15.21 32.765 31.4-5.95-6.959-60.249-61.278-67.984-68.003l10.085 11.526c-42.972-38.18-45.215-33.582-93.471-65.148 76.714 20.102 75.606 38.695 84.549 29.753 6.542-6.542 45.61 30.038 55.903 38.194-9.601-19.202-7.126-19.4-18.403-38.194 58.491 45.493 52.463 73.454 136.111 115.278 137.656 68.828 170.814-85.998 352.445-134.243Zm776.722 73.132c-56.104-33.662-19.551-52.991-26.389-66.667-4.168-8.336 42.02-50.928 52.053 5.455-38.228-29.733-41.802-6.315-39.553-4.066 3.775 3.775-19.814 9.107 13.889 65.278m-2469.444 31.944c2.204 0 5.195 16.307-2.778 8.333-40.195-40.195 5.824-127.241 37.5-63.889.545 1.091-45.1-14.545-33.333-2.778.463.463-1.232 3.852-1.389 4.167-1.897 3.794-4.441.824-5.556 4.167-7.265 21.794 2.813 50 5.556 50m2578.168-61.88c55.816-14.021 53.991 13.698 52.388 10.491-5.794-11.588-28.341-7.507-18.056 2.778 10.46 10.46 9.367 10.029 20.833 18.056-33.665 0-27.845-12.902-55.165-31.325m91.276 4.936c5.569 0 31.481 0 61.111 33.333-34.386-7.935-30.23-14.805-61.111-33.333m-1429.167 6.944h-1.389v1.389h1.389l20.833 20.833v1.389h1.389v-1.389h-1.389l-20.833-20.833zm-6936.158 8.686c5.307 3.307 67.408 42.008 62.547 46.869-1.56 1.56-2.032.745 0 2.778 2.395 2.395 1.996 2.603 15.278 29.167 9.798 19.595 8.715 80.174 0 88.889-10.805 10.805 23.315-92.443-77.825-167.702Zm3240.325 101.036c-4.833-3.759-50.781-39.497-15.278-75 21.468-21.468 28.364-15.092 44.956 9.795-56.512-27.539-47.02 30.521-29.678 65.205m2626.389-44.444c-34.239 0-56.639-41.883-34.722-37.5 1.691.338 26.057-10.385 36.111 9.722.583 1.167 2.194-2.556 2.778-1.389 5.247 10.494-42.707-12.672-27.778 9.722 12.708 19.062 47.011 19.444 23.611 19.444Zm2556.944-5.556c3.778 0-7.043-5.457 2.778-15.278 11.753-11.753 40.599-3.348 22.222 2.778-.871.29-18.593-3.223-16.667 8.333 2.292 13.749-10.709 4.167-8.333 4.167m-2512.714-20.513c3.027 2.018 4.089-1.161 41.88 17.735 11.104 5.552 19.521 26.465 6.944 13.889-3.291-3.291-4.16-.021-48.825-31.624Zm-5097.228 35.937c-55.549-35.059-41.105 32.664-40.058 33.187 2.089 1.045-8.124 5.765 12.5 26.389 1.571 1.571-47.91-11.124-19.444-68.056 15.492-30.984 28.992-21.62 47.003 8.48Zm1708.553-23.757c7.493 2.498 49.33 4.886 105.556 61.111.248.248-4.47-1.996-1.389 4.167 3.776 7.552 15.597 2.459 9.722 8.333-1.736 1.736-2.856-1.625-2.778-1.389 1.007 3.02 2.581.996 19.444 34.722 5.276 10.553 19.927 67.09-5.556 118.056-1.736 3.471-22.99 45.98-11.111 47.222 10.016 1.048 20.193-.666 30.208.382-7.968 17.99-9.168 16.446-16.219 34.139 68.205 3.405 77.349-1.517 111.011 32.145.579.579 1.968-.81 1.389-1.389l2.778 2.778c-.37-.37 40.633 54.522 0 13.889-2.051-2.051-4.798-.757-2.778-2.778.554-.554 22.087 19.309 5.556 2.778-52.478-52.478-65.882-29.665-86.111-34.722-25.962-6.49-74.325 13.175-81.944 5.556-6.488-6.488 43.409-106.591 37.5-112.5-3.241-3.241 2.222-14.167 2.778-15.278 12.679-25.358 2.662-100.116-45.833-148.611-17.817-17.817-61.186-40.886-72.222-48.611Zm834.954 29.167c31.781-4.953 38.484-13.05 53.935 15.278-1.571-.629-46.296-18.519-19.444 8.333 11.647 11.647 14.895 10.105 13.889 11.111-15.14 15.14-36.043-23.698-48.38-34.722m4936.276 3.373c7.279-1.493 45.569-9.347 92.659 6.349 33.532 11.177-85.299-5.327-92.659-6.349m-2319.749 25.238c-14.463-21.695-2.976-29.466 22.13-24.444 3.83.766-.322 10.491-11.111 8.333-12.716-2.543-8.561 3.91-11.019 16.111m-2525.093-21.667c20.859 5.215 37.769 10.544 56.944 36.111-4.979-2.075-30.719-12.8-56.944-36.111m1540.278 12.5c55.483 27.741 97.958 30.636 121.357 136.498-36.116-57.249-32.841-59.093-86.635-112.887-3.012-3.012 5.478 9.644 2.778 6.944-17.436-17.436-16.108-17.72-37.5-30.556Zm-4090.395 7.684c39.563-9.266 64.696-1.43 51.506 11.76-1.091 1.091 2.308-5.927-16.667-9.722-28.565-5.713 23.014 31.043 18.056 31.944-23.701 4.309-19.239-8.272-52.895-33.982m-896.194 142.829c44.58-69.015 50.25-69.024 44.922-79.68-1.35-2.7 6.526-2.105 4.167-37.5-.136-2.045-1.504-22.564 2.682-25.479 31.498 103.304-38.428 135.29-51.771 142.659m2560.386-141.305c5.783 3.948 59.864 40.868 52.592 69.958-.782 3.126-6.713 26.852 0 40.278 4.167 8.333-13.955-46.032-15.278-50-10.417-31.25-29.735-50.569-33.333-54.167-.614-.614-8.915-8.915-6.944-8.333 1.192.352 1.771 1.912 2.964 2.264Zm-1522.408 39.403c0 .651-87.515-56.257-16.667-20.833 6.236 3.118 33.326 25.46 23.611 22.222-.537-.179-6.944-2.315-6.944-1.389m4858.333-11.111c-45.382 0-91.535-37.369-59.722-5.556 1.481 1.481 29.515-17.881 68.056 1.389 13.123 6.562 30.047-5.047 19.444 5.556-10.76 10.76-11.974-1.389-27.778-1.389m-2359.541 3.321c-3.121.62-30.577 2.554-25.181 13.345 7.231 14.461-16.202-2.317-12.5-9.722 1.431-2.861 25.597-14.68 31.944-8.333 2.996 2.996 2.682 2.377 5.737 4.71m1498.43-1.932h-1.389v-1.389h1.389zc2.349 2.088 14.706 13.072 27.778 27.778h1.389v1.389h-1.389v-1.389c-14.706-13.072-25.69-25.429-27.778-27.778m-3976.307 54.657c-11.153-14.328-15.712-16.804-2.859-29.657 3.507-3.507 39.056-.982 11.111 8.333-17.421 5.807-9.843 11.003-8.252 21.324m6606.556 120.233c-5.513-20.674.184-21.091-6.637-41.557-.128-.384 8.373-38.928-1.389-29.167-13.661 13.661-11.321 17.845-12.5 16.667-19.759-19.759 108.345-95.827 113.889-93.056-10.127 9.115-78.951 62.716-73.611 68.056 1.267 1.267-1.824.869-11.111 19.444-1.357 2.713 16.253-.975 8.333 6.944-12.48 12.48-16.482 48.269-16.974 52.668Zm-252.471-142.946 41.667 41.667c-9.362-9.362 11.247 15.346 13.889 16.667 15.884 7.942-2.379 21.033 13.889 29.167 14.352 7.176 29.046 126.751 12.5 176.389-9.108 27.324 1.807-22.775-2.778-31.944-12.058-24.116 21.517-55.277-39-129.722 6.95 5.792 14.313 21.076 22.333 13.056 8.611-8.611-56.681-106.549-62.5-115.278Zm-4052.222 12.5c44.076-12.521 44.313-9.581 73.056 0 1.804.601 1.225-2.819 23.611 2.778 33.366 8.342-35.666 3.722-31.944 0 2.778-2.778-59.54-2.778-64.722-2.778Zm-2363.056 36.111c-18.056 0-37.288-9.616-40.278-11.111-1.091-.545-59.009 7.282-38.889-2.778 22.021-11.011 131.176 13.889 79.167 13.889m6801.984 92.262c82.72-33.088 118.853-46.436 132.738-74.206 1.389-2.778 11.443-12.832 12.5-13.889 12.332-12.332 8.8-14.683 21.429-26.786-27.213 81.638-63.01 100.554-166.667 114.881m-2521.429-93.651c-46.012 46.012-86.951 74.16-83.333 77.778 1.759 1.759-15.726 5.085-5.556 0 1.645-.823-6.585-4.526 9.722-20.833 5.517-5.517 64.352-64.352 79.167-56.944Zm69.192 126.389c131.16-53.834 159.423-138.623 154.419-123.611-12.163 36.49-29.982 107.218-154.419 123.611m-5143.775-19.861c2.226.057 21.667.556 27.361-5.139 6.198-6.198 5.095 13.428-1.389 6.944-1.389-1.389-11.604 8.826-12.5 9.722-57.556 57.556-49.308 71.526-54.167 66.667-10.573-10.573 41.847-66.063 20.833-55.556-32.24 16.12 9.316-29.573 6.944-31.944-8.219-8.219 104.871-75.684 111.111-69.444-30.794 30.794-51.664 26.176-98.194 78.75Zm2499.583-12.083c5.556 0 15.534-9.978 16.667-11.111 20.175-20.175 38.191-18.747 62.5-43.056 1.343-1.343 36.111-36.111 22.222-8.333-40.078 80.156-191.661 62.5-101.389 62.5m162.5 97.222c17.906-13.43 73.862-29.418 101.389-56.944 4.557-4.557 56.944-56.944 58.333-55.556-4.942 14.827-33.285 99.856-159.722 112.5m-2529.167 6.944c32.992-14.997 124.097-47.708 158.333-81.944 3.314-3.314 15.499-9.501 13.889-11.111-.694-.694 17.832-19.221 19.444-20.833 13.932-13.932-34.739 104.081-191.667 113.889Zm-259.722-15.278c0-24.953-29.603-71.27-2.778-44.444 12.943 12.943 2.778 96.886 2.778 44.444m-25-2.778c-3.082 0-8.749-28.193-22.222-41.667-.248-.248 4.47 1.996 1.389-4.167-1.124-2.249 16.496 3.656 25 29.167 8.859 26.577-3.309 25.327-4.167 23.611-2.183-4.366 4.765-6.944 0-6.944m-58.333-37.5c24.676 12.338 36.918 8.153 35.694 50.556-17.716-29.215-22.048-25.537-35.694-50.556m2704.167 29.167c6.603 3.302 7.246-.544 13.889 2.778 27.501 13.75 33.144 2.148 53.77 24.355l-10.747 19.508-24.392-19.812 9.684 11.298c-36.553-32.476-38.987-34.91-42.204-38.127m-16.667 29.167c20.652 6.884 32.492-11.404 47.222 18.056 1.353 2.707-25.827 10.471-47.222-18.056m2626.698 16.512c11.197 6.257 23.778.59 46.65 47.13-22.723-9.279-20.938-17.513-46.65-47.13m-36.073-1.061c10.916 7.357 22.334 8.618 32.986 19.271 27.381 27.381 16.533 32.826 13.889 31.944-.733-.244-43.147-47.098-46.875-51.215m13.542 17.882h-1.389v-1.389h1.389zc14.706 13.072 25.69 25.429 27.778 27.778h1.389v1.389h-1.389v-1.389c-2.349-2.088-14.706-13.072-27.778-27.778m-42.361 8.681c19.387-6.924 20.016 7.353 29.861 2.431 9.345-4.672 49.646 56.59 18.056 25-20.166-20.166-21.977-16.382-47.917-27.431m-290.972 66.319c-21.379 0-25.268-69.981-9.722-38.889 12.5 25 27.55 40.05 25 37.5-.868-.868-.976 1.389-15.278 1.389m-2448.611 79.167c6.129 0-22.049 9.549-16.667 4.167 2.062-2.062-3.533.634-27.778-23.611-8.769-8.769 32.54 14.682 36.111 11.111 5.676-5.676.422 8.333 8.333 8.333Zm5216.718-13.272c21.512 12.827 23.478 9.232 38.441 28.351-21.666-11.844-22.946-9.757-38.441-28.351m-25.917 7.354c32.83 7.361 32.221 8.18 58.088 29.807-5.245-.671-25.35 1.815-58.088-29.807m-5262.258.561c13.021 10.787 16.247 4.314 28.401 16.468 3.758 3.758 45.475 10.081 34.722 20.833-.667.667-30.495-2.656-30.556-2.778-1.698-3.396-5.161-.131-32.568-34.524Zm5235.346 10.913c4.449 4.449 29.645 6.466 26.389 9.722-1.612 1.612 3.235-.008 19.444 20.833-26.475-11.031-30.936-5.726-45.833-30.556Zm-2627.347 31.866c50.772-8.442 51.998-7.215 55.125-4.088 2.033 2.033-4.358-.383-2.778 2.778 2.5 5-6.09 9.295-6.944 9.722-22.531 11.265-22.732 2.312-45.403-8.412m-4166.512 58.485c-1.182-.886-81.554-72.571-47.807-50.073 8.999 5.999 33.935-.295 47.807 50.073m4163.352-30.514c55.932-4.047 55.114-8.58 59.674-7.059 3.716 1.239 19.556-12.388 23.611-8.333-4.199 4.724-27.787 48.346-83.285 15.393Zm-4206.108 30.314c-2.936-1.907-68.939-44.781-30.051-31.818 17.218 5.739 21.214 2.877 30.051 31.818m2121.338 1.515c-33.892-20.335-59.428-23.906-50-33.333.221-.221 26.179-6.368 50 33.333m-59.722 1.389c0-.625-36.271-37.887-18.056-33.333.454.113 24.322 24.661 25 25 2.333 1.166-6.944 15.244-6.944 8.333m-2636.111-1.389c-7.282 0-61.281-45.918-11.111-20.833 10.185 5.093 14.505 13.732 15.278 15.278 2.547 5.094.91 5.556-4.167 5.556Zm-20.833 4.167c-3.982 0-3.857 4.785-5.556 1.389-1.042-2.083-19.114-14.131-20.833-15.278-1.324-.882-41.146-27.431-8.333-18.056 5.158 1.474 38.603 31.944 34.722 31.944Zm-33.222 12.722c-35.108-16.534-29.665-22.832-39-32.167-17.026-17.026 36.103 13.897 33.333 16.667-.694.694-3.883-2.494-4.167-2.778-12.279-12.279 1.644 3.055 9.833 18.278Zm5302.667 712.278c62.131-16.945 72.443-1.83 88.889-34.722 10.853-21.707 10.652-25.459 13.889-22.222 1.352 1.352-.559-3.887 19.444-13.889 13.889-6.944 33.485-26.541 36.111-29.167 8.43-8.43 127.733-58.348 206.944-31.944 54.622 18.207 197.314-70.788 105.556-116.667-26.282-13.141-83.036-74.703-36.111-27.778 15.559 15.559-13.134-5.434-30.556-40.278-5.743-11.487-91.123-89.855-109.722-80.556-1.389.694-39.63-8.866-43.056-9.722-110.169-27.542-245.716 49.364-252.778 45.833-1.099-.549-299.738 131.682-300 131.944-8.522 8.522-22.354-.132-15.278 6.944 2.907 2.907-5.093-5.093-48.611 16.667-3.121 1.56-3.86-2.854-43.056 6.944-103.455 25.864-159.449 16.621-218.056 26.389-39.505 6.584-39.496-3.834-79.167 2.778-29.972 4.995-143.897 15.004-172.222 29.167-6.481 3.241-43.416 7.858-47.222 8.333-6.878.86-59.847-11.743-66.667-8.333-13.593 6.796-62.95-43.525-255.556 52.778-13.088 6.544-131.944 65.972-177.778 43.056-58.783-29.392-59.427-27.483-105.556-73.611-21.904-21.904-24.898-55.861-34.722-26.389-16.496 49.488 29.062 109.618-8.333 72.222-35.215-35.215-4.763 17.066-6.944 23.611-6.389 19.166 91.107 121.663 54.167 84.722-2.807-2.807-3.918.819-45.444-19.944 67.887 96.225 124.355 77.013 186.278 82.444-18.688 17.678-47.908 16.537-36.667 27.778.74.74 12.19-7.254 18.056-1.389.177.177 13.889-3.241 25-1.389 26.275 4.379 113.062-37.64 122.382-42.152-15.919 23.157-31.794 24.407-22.382 33.819 1.9 1.9.969-2.568 29.167-16.667 8.333-4.167 34.662-30.495 37.5-33.333 24.675-24.675 32.014-13.958 56.944-38.889 15.793-15.793 40.546-22.491 25-6.944-6.892 6.892-86.111 86.111-83.333 88.889 2.226 2.226-86.002 65.959-104.861 92.361 81.754-31.01 78.367-37.021 143.75-95.139-16.739 37.662-19.519 34.797-33.333 48.611-62.151 62.151-115.676 58.466-173.611 77.778-5.876 1.959-59.93-2.57-83.333 20.833-60.718 60.718-66.739 52.85-127.778 113.889-3.756 3.756-46.528 46.528-40.278 52.778 1.389 1.389-8.826 11.604-9.722 12.5-12.301 12.301-75.11 9.465-23.355 39.6-11.766 4.721-43.185 8.379-11.367 24.288 48.141 24.07 49.944 22.25 63.889 15.278 6.208-3.104 12.156 7.288 23.611-4.167 7.348-7.348 12.247 1.642 26.389-12.5 15.284-15.284 19.008-9.286 34.722-25 41.957-41.957 36.707-52.182 40.278-48.611.694.694 29.444-28.055 31.944-30.556 9.348-9.348 8.672-9.197 20.833-15.278 40.665-20.333 85.444-54.889 52.778-22.222-2.643 2.643-5.354-3.18-8.333 2.778-1.461 2.923-6.055-3.667-33.333 23.611l-54.167 54.167c-60.622 60.622 28.536 78.451 68.056 65.278.23-.077 16.436 3.318 30.556-1.389.641-.214-.111 1.934 8.333 1.389 39.848-2.571 70.871 12.576 52.778-23.611-6.89-13.78-8.77-11.87-15.972-19.792l7.639 8.681c-19.719-19.719-20.435-18.303-47.222-25-48.444-12.111 19.374-43.126 12.5-50-1.835-1.835 48.338-35.276 54.167-33.333 4.861 1.62 24.342-4.873 26.389-5.556 45.997-15.332 134.119-25.201 143.056-22.222 28.918 9.639 228.682-71.738 256.944-100 7.42-7.42 96.139-48.55 109.722-45.833 8.681 1.736 54.972-4.877 59.722-5.556 4.181-.597 83.939 12.349 94.444 9.722 7.794-1.948 7.239 4.068 15.278 1.389 3.274-1.091 2.719 9.5 43.056 2.778 37.231-6.205 91.761-2.487 99.722-1.944-11.46 5.73-21.093 13.275-37.394 19.922 7.387.02 72.166.192 91.838-9.644 9.191-4.596 21.462 6.184 13.889-1.389-.24-.24 48.259-7.629 51.389-13.889 1.482-2.965 3.399 2.571 40.278-9.722 37.5-12.5 48.121-23.121 51.389-26.389 7.372-7.372 21.532 2.088 13.889-5.556-.959-.959 2.083 2.083 13.889-9.722 9.086-9.086 25.973.973 16.667-8.333-2.108-2.108 8.333 8.333 33.333 16.667 10.515 3.505-27.822 15.322-22.222 9.722.703-.703-6.349 6.349 5.556 11.111 19.836 7.934 44.25-9.528 29.167 5.556-.463.463-42.162 6.42-45.833 6.944-13.503 1.929 60.828 21.117 73.611 8.333.007-.007 14.529 2.886 18.056-4.167.706-1.412 18.035 2.798 41.667-20.833 6.271-6.271 17.49-.565 11.111-6.944-.671-.671-5.501-12.473 11.111-4.167 10.953 5.477.741 24.259 9.722 15.278 2.251-2.251-2.79 10.066 34.722 19.444 37.143 9.286 115.503-17.83 108.333-25-1.526-1.526 4.41 2.535 22.222-15.278 91.585-91.585 16.494-142.883 11.111-137.5-1.869 1.869-1.302-8.846-37.5-5.556-50.142 4.558-92.002 3.063-100 2.778Zm-4531.944-334.722c-11.111-9.722-29.945-28.556-27.778-26.389 90.823 90.823-34.408-44.758-51.389-27.778-2.262 2.262-.4-6.469-37.5-13.889-24.03-4.806-23.817-.034-48.611-4.167-99.617-16.603-304.093 112.537-312.5 108.333-5.556-2.778-33.377 11.133-36.111 12.5-34.191 17.096-265.065-3.312-516.667 80.556-28.066 9.355-191.251 79.583-187.5 83.333 6.896 6.896-142.911 57.089-205.556-5.556-4.768-4.768-6.279-.723-11.111-5.556-3.167-3.167-39.583-39.583-40.278-38.889-5.123 5.123-1.763-13.382-16.667-20.833-2.784-1.392 3.86-5.862-22.222-31.944-8.578-8.578-16.445-18.779-12.5-6.944 5.339 16.018-6.326 2.008-18.056-9.722-134.825-134.825-210.583-84.339-268.056-95.833-2.476-.495-44.919 6.013 1.389 29.167 2.721 1.36 42.749 35.805 29.167 22.222l9.722 9.722c31.114 31.114 84.798 49.672 41.667 38.889-105.157-26.289 24.316 30.062 93.286 132.894l-32.522-9.978c41.1 49.32 41.019 48.311 86.458 93.75 3.028 3.028 25.819 15.847 25 16.667-.222.222.926-.926 2.778 2.778 2.568 5.135 6.691-1.896 9.722 4.167 5.837 11.674-5.494 1.385-18.1 5.004 83.761 63.755 223.84 62.866 243.1 43.607 1.678-1.678 2.201-.086 27.83-10.241 4.715 27.333-7.245 74.468 25.831 137.539l7.119-33.846c16.337 49.011 16.913 47.877 29.497 98.214 25.409 101.636-59.256 139.122 34.722 186.111 4.028 2.014 85.362 27.138 91.667 20.833 2.751-2.751 2.935 12.808 48.611 1.389 13.093-3.273 82.162-10.242 84.722 0 6.57 26.281 14.426-17.093 29.167-9.722 1.666.833 21.833 10.917 22.222 6.944.586-5.985-.209-12.053.377-18.038l24.97 15.856c-32.575-125.919-170.567-53.695-180.903-95.04-4.219-16.877 68.578-53.823 73.611-63.889 1.267-2.534 2.935-.157 26.389-23.611 3.511-3.511 43.75-43.75 40.278-47.222-2.083-2.083 2.355-6.521 2.778-6.944 13.057-13.057 1.016-22.036 18.056-30.556 12.424-6.212 14.217 11.081 173.409-8.64-28.868 45.467-39.517 60.168-56.742 55.862-13.333-3.333-26.085 9.419-27.778 11.111l-13.889 13.889c-15.16 15.16 19.466-1.323 26.389 19.444 8.563 25.688-75.943-64.385-52.778-18.056 5.441 10.883-17.669 2.162-12.5 12.5 3.042 6.084 32.143 64.286 66.667 52.778 7.813-2.604 31.99 2.231 34.722 2.778 31.456 6.291 85.991-39.392 100-34.722 22.436 7.479 44.872 1.068 48.611 0 11.171-3.192 140.972-40.278 120.833-80.556-1.389-2.778 8.776-33.273 9.722-36.111 5.855-17.565-3.114-18.772 5.556-36.111 4.757-9.515 7.415-6.026 15.278-13.889 13.524-13.524 110.936-69.269 84.722-43.056l86.111-86.111c21.126-21.126 16.247-28.198 18.056-26.389 1.869 1.869 19.65-34.13 62.5-55.556 3.308-1.654 27.778-13.889 38.889-25 31.279-31.279 243.829 1.847 256.944-37.5 1.043-3.13 2.142-2.142 29.167-29.167 5.21-5.21 44.444-44.444-36.111-84.722-39.706-19.853-41.53-52.932-80.556-84.524l16.667 17.857Zm2462.5 5.556c-7.831-6.852-88.384-77.336-112.5-65.278-1.025.512-34.551-13.918-93.056-4.167-67.673 11.279-69.443 2.777-130.556 33.333-25 12.5-31.11 18.61-33.333 20.833-8.229 8.229-23.708-1.486-15.278 6.944 1.94 1.94-5.556-5.556-29.167 18.056-8.333 8.333-86.751 47.542-94.444 51.389-42.598 21.299-48.681 17.985-45.833 20.833 2.86 2.86-4.823-3.144-47.222 18.056-113.861 56.931-212.975 7.024-320.833 25-55.986 9.331-56.01 4.474-112.5 13.889-41.696 6.949-207.469 78.21-211.111 76.389-.397-.198-14.06 2.534-15.278 2.778-112.722 22.544-197.07-5.48-150 18.056 6.494 3.247 13.341 6.529 5.556 5.556-7.271-.909-85.984 14.857-109.722 6.944-2.321-.774-1.812 3.402-30.556-1.389-13.481-2.247-121.97-20.328-151.389-79.167-4.482-8.963-2.619-9.564-9.722-16.667-3.735-3.735-33.162-64.422-27.778-37.5 13.243 66.216-41.91-58.991-38.889-68.056.868-2.604-6.282-38.353-6.944-41.667-2.608-13.041-8.232-8.435-18.056 1.389-40.741 40.741-32.896 150.565-31.944 163.889-2-2.857-24.592-35.131-22.222-37.5 1.743-1.743-8.68-10.763-5.556-1.389.302.905-.796 53.964 31.944 119.444 17.362 34.724 136.401 147.512 58.333 69.444-5.15-5.15 9.781 4.078 6.944 8.333-1.733 2.599-2.18-1.666-38.344-7.362 37.088 43.008 84.404 55.392 102.232 64.306 20.747 10.373 100.98 7.354 93.056 15.278-2.65 2.65-4.697-3.99-45.833 9.722-32.771 10.924 136.732 28.546 161.111 4.167 10.648-10.648 16.068.192 16.667 1.389.66 1.32-1.979 17.257 12.5 2.778 6.419-6.419 10.606 1.722 103.16-47.257-31.592 60.541-42.75 72.958-55.938 86.146-34.254 34.254 24.247-1.655 26.031-2.75-20.879 55.677-54.879 53.07-42.698 65.25 2.712 2.712-122.522 63.589-102.778 83.333 7.822 7.822-11.737 9.096-4.167 16.667.51.51-57.106 163.835-2.778 181.944 2.72.907-1.002 5.749 29.167 20.833 2.144 1.072 85.613 9.224 88.889 12.5 1.511 1.511-1.02-17.871 26.389-4.167 12.444 6.222 35.501-1.999 27.778-9.722-4.674-4.674 14.517 4.299 13.889 5.556-1.237 2.475 10.868 8.992 8.333 1.389-2.194-6.583 11.545-14.844-12.5-38.889l-23.611-23.611c45.023 45.023-16.551-25.752-37.5-15.278-1.167.584-14.292-9.319-18.056-5.556-4.417 4.417-27.49-44.096 29.167-75-34.95 64.076-14.543 69.077-9.722 66.667 3.472-1.736 39.715 16.385 43.056 18.056 7.175 3.588 32.888 47.113 35.429 51.414l115.96-1.414c-27.925-102.393-77.735-48.568-105.556-76.389-4.514-4.514.826-20.532 1.389-22.222 5.826-17.478-3.53-24.286 15.278-30.556 18.176-6.059 193.839 17.272 293.056-81.944 48.68-48.68 39.767-70.961 73.611-62.5 19.957 4.989 42.639-14.861 27.778 0-7.55 7.55 242.566 2.288 226.389-13.889-2.343-2.343 40.777-13.418 44.392-14.346-33.437 20.487-29.569 24.99-63.836 42.124-5.987 2.993-5.241 1.604-11.111 2.778-26.466 5.293-27.385 11.504-36.111 2.778-18.88-18.88 20.005 22.006 5.556 23.611-4.999.555-26.353-5.52-16.667 4.167 2.56 2.56-2.333 3.223 0 5.556 47.601 47.601 136.656 49.455 193.056-6.944 18.77-18.77 21.537-31.241 40.278-12.5 8.076 8.076 102.489 23.9 141.667-15.278 30.818-30.818 38.331-31.114 30.556-38.889-3.901-3.901 18.517-8.8-11.111-68.056-14.371-28.741 67.216-60.561 59.722-68.056-.633-.633 6.944 6.944-1.389 11.111-1.122.561-7.196 19.412-7.749 21.126 28.015-24.704 48.63-56.633 45.249-60.015-.676-.676 3.251 1.358 6.944-9.722 13.277-39.83 22.964-104.005 129.167-130.556 127.598-31.899 141.088 17.245 165.278-6.944 5.424-5.424 10.236 5.042 25-9.722 14.931-14.931 19.564-7.064 34.722-22.222 81.115-81.115-28.918-71.725-69.444-152.778-6.313-12.626-31.621-32.31-34.722-34.722l20.833 20.833Zm4570.833 193.056c35.344 21.206 32.53 42.654 44.444 48.611 1.163.582-1.272 1.622 5.556 15.278 6.783 13.566-14.006 28.588 16.667 34.722 9.546 1.909-16.743-37.475 95.833-75 104.64-34.88 157.039 11.08 202.778-4.167 32.974-10.991 35.197-6.03 62.5-33.333 33.471-33.471 43.721-42.391 9.722-76.389-26.799-26.799-32.636-18.747-59.722-45.833-.248-.248 4.47 1.996 1.389-4.167-25.85-51.7-134.166-150.486-258.333-119.444-4.331 1.083-14.889-5.167-9.722 0 3.193 3.193-44.308-.763-81.944 18.056-2.242 1.121-22.222 11.111-30.556 6.944-9.027-4.513-197.905 78.468-320.833 119.444-138.47 46.157-674.201 61.321-680.556 48.611-.96-1.919-.833-1.667-25-9.722-32.173-10.724-200.433-18.2-162.5-5.556 5.158 1.719 5.672-1.202 36.24 9.622-136.137 9.697-145.497 21.707-136.24 27.878l12.5 4.167c-7.043-2.348-106.642 35.809-134.722 63.889-9.302 9.302-26.016.373-16.667 9.722 1.399 1.399-3.212-.954-19.444 15.278-7.218 7.218-19.741 1.092-12.5 8.333 1.416 1.416-3.472-3.472-20.833 13.889-25.835 25.835-46.948 32.234-171.526 86.068 21.024 3.417 48.013-1.64 45.137 6.988-1.067 3.201-2.876.033-40.278 12.5-47.159 15.72-49.069 17.14-47.222 20.833 13.757 27.514 155.102 32.866 212.5 4.167 8.753-4.376 10.9 1.378 112.634-47.715-1.001 1.743-18.045 31.415-7.079 24.104 71.905-47.937 78.225-56.45 75-50-11.944 23.888 80.851-56.797 88.889-52.778l22.222-11.111c62.898-31.449-13.499 17.666-88.889 93.056-28.535 28.535-151.815 62.358-193.056 48.611-15.251-5.084-87.637 65.346-143.056 93.056-11.111 5.556-24.487 18.931-26.389 20.833-5.544 5.544-15.114-1.225-9.722 4.167 2.687 2.687-5.961-2.372-37.5 29.167-22.093 22.093-25.162 16.061-55.71 20.679 21.948 24.654 24.394 29.53 19.599 27.932-1.15-.383-17.644 5.067-22.222 2.778-53.288-26.644 44.261 30.739 37.5 37.5-5.628 5.628 80.199 14.245 106.944-12.5 9.271-9.271 26.249-.14 16.667-9.722-2.062-2.062 3.533.634 27.778-23.611 102.714-102.714 247.692-40.513 255.556-44.444 7.89-3.945 7.21 5.467 15.278 2.778 4.877-1.626 10.202 7.854 15.278 2.778 4.881-4.881 4.768 19.113 86.111 5.556 63.06-10.51 64.695-3.181 113.889-27.778 134.497-67.249 136.349-62.116 170.833-73.611 69.199-23.066 275.24 34.315 301.389 27.778 7.665-1.916 6.83 8.72 98.611 5.556 28.338-.977 44.622-7.122 33.333 4.167-1.309 1.309-1.925-1.132-21.599 8.291 86.234 8.957 161.002-46.305 131.321-16.624-10.961 10.961-12.497 8.331-23.51 19.424 2.009-.309 36.855 6.542 205.455-77.758 4.453-2.226.328-9.394 4.167-5.556 8.003 8.003 16.109-17.782 25 0 1.978 3.955 30.546 31.941 30.556 31.944 19.328 6.443 42.394-10.45 27.778 4.167-5.525 5.525-5.494 3.671-44.524 14.269 99.519 36.021 129.377 3.026 263.968-64.269 51.242-25.621 65.98-36.095 91.667 15.278 7.763 15.525-15.788 64.839 16.667 48.611 11.034-5.517 9.598-6.68 19.696-12.961l-6.904 22.537c4.215-2.107 35.819-17.909 45.541-37.354 58.087-116.175-58.85-164.325-68.056-159.722-3.819 1.91-37.082-3.634-40.278-4.167-23.958-3.993-60.457 14.256-65.278 16.667-24.042 12.021-26.368-1.675-51.389 8.333-2.279.912-19.841 7.937-30.556-2.778-1.526-1.526 5.927-3.424-5.556-26.389-1.639-3.278 2.385-3.957-11.111-44.444-3.356-10.069-21.492-33.387-23.611-36.111Zm-3995.997 90.32c139.874 78.958 194.467-.921 366.83-58.376 10.479-3.493 87.5-29.167 137.5-12.5 5.531 1.844 50.694 16.898 72.222 9.722 111.876-37.292 480.797-46.074 495.833-61.111 1.26-1.26 1.329 9.058 22.222-1.389 16.935-8.468 45.205-10.102 33.333-4.167-23.325 11.662-45.843 36.102-48.611 33.333-1.257-1.257 5.556 5.556 22.222 0 15.985-5.328 12.508-11.81 186.111-98.611 148.331-74.165 188.454-78.949 269.444-119.444 28.704-14.352 35.298-7.758 33.333-9.722-3.63-3.63 14.92 1.746 25-8.333 1.296-1.296 2.341 4.385 22.222-5.556 4.401-2.2 4.256 2.531 61.111-6.944 19.57-3.262 115.488 12.71 165.278 62.5 10.495 10.495 33.275 40.511 36.031 44.143-4.728-1.418-76.828-30.378-106.864-26.087-41.17 5.881-85.611-36.278-111.111-27.778-3.754 1.251-44.167 14.722-38.889 30.556 3.716 11.149-51.657 15.546-63.889 27.778-5.82 5.82-9.56-1.551-19.444 8.333-9.68 9.68-27.429-2.429-18.056 6.944.393.393-.694-.694-5.556 4.167-4.167 4.167-57.432 30.799-62.5 33.333-12.096 6.048-6.716 11.691-19.444 18.056-18.988 9.494-23.472 8.473-19.444 12.5l-5.556-5.556c-1.228-1.228.411-1.8 29.167-30.556 8.549-8.549-21.615.607-18.056 4.167 3.818 3.818-9.369-4.52-54.167 40.278-1.817 1.817-69.149 78.871-101.389 111.111-16.759 16.759-17.109 20.391-20.833 16.667-3.444-3.444 8.201-.331 27.778-54.167-5.43 3.016-9.375 5.208-56.944 52.778-6.068 6.068-75.694 75.694-80.556 70.833-.855-.855-.316-.896 24.172-53.677-112.502 87.501-117.087 79.545-128.339 84.233 29.63-24.691 49.797-51.581 53.535-56.566-80.19 51.666-195.888 74.604-188.258 59.343.579-1.159 2.546 3.009 13.889-8.333 9.003-9.003 11.93-3.596 20.833-12.5 9.722-9.722-29.499 3.352-31.944 4.167-88.095 29.365-179.624 6.483-166.667 9.722 1.478.37.74.241 57.005-17.89-70.915-2.086-69.963 1.591-140.493-2.943 54.422-13.512 54.75-20.404 51.543-23.611-1.195-1.195-96.564-.731-97.222-1.389-.587-.587-39.811 3.7-33.333-2.778 6.331-6.331 50.411-18.065 54.909-19.263-60.121-4.063-59.295.145-125.837 8.751 14.439-11.834 32.386-20.955 39.945-27.132-3.359.252-35.424 2.661-41.24 8.478-2.907 2.907-5.694-4.792-48.611 16.667-11.132 5.566-19.699 18.564-13.889 6.944 3.061-6.122 13.713-27.425 67.39-52.719-63.263-5.129-63.576-7.812-124.335 12.441-24.474 8.158-48.958 29.513-30.556 11.111 6.534-6.534 1.511-17.933 8.333-11.111 2.722 2.722 8.812-8.956-1.389-5.556-45.218 15.073-120.488 78.822-83.333 41.667 40.027-40.027-13.682 5.452-63.889 30.556-8.333 4.167-18.046 13.879-19.444 15.278-9.449 9.449-3.963-15.074 0-11.111.889.889 0 0 11.111-11.111 33.513-33.513-13.709 2.385-65.278 15.278-51.201 12.8-92.366 35.422-63.889 6.944 10.202-10.202 15.745 5.088 26.389-5.556 4.125-4.125 3.14-6.763 8.333-4.167 6.811 3.406 3.941-8.258-4.167-5.556-3.675 1.225-66.242-.964-102.778-37.5-2.778-2.778-15.493-16.563-16.83-18.013ZM1493.058 2777.78c56.575-12.572 50.373-29.229 108.333-38.889 94.63-15.772 133.352-69.451 275-116.667 161.37-53.79 263.353 58.869 258.333 63.889-.694.694 14.638 16.027 15.972 17.361-26.593-6.005-30.216-7.816-32.639-9.028-32.813-16.407-83.203 6.315-170.833-37.5-11.15-5.575-62.921 16.246-52.778 26.389 11.21 11.21-96.68 50.304-105.556 68.056-3.321 6.643-11.242-2.647-72.222 58.333-57.568 57.568 6.358-28.364 8.333-26.389 1.511 1.511-5.556-5.556-23.611 12.5-12.665 12.665-23.986-5.105-183.979 127.568 12.573-29.56 17.852-26.235 29.278-56.681-104.115 87.894-103.039 88.66-113.355 94.391 3.33-5.994 38.19-61.801 5.556-29.167-8.499 8.499-23.798-.187-15.278 8.333.547.547-128.18 74.013-86.111 31.944 19.501-19.501 47.206-38.881 22.222-26.389-5.601 2.8-46.862 33.568-146.973 38.433 15.973-6.112 28.266-14.206 41.418-18.988-39.718-4.413-204.998 27.934-76.401-13.729-12.825-.904-103.087-7.27-159.71 17.896.087-.087 9.166-18.333 54.167-33.333 21.211-7.07-66.166-10.223-111.111 34.722-60.222 60.222 17.155-31.86 19.176-34.265-8.606 4.483-65.557 34.145-99.569 69.275 12.054-30.136 12.068-29.362 29.319-56.153-55.621 11.012-80.494 50.844-155.87 41.976 102.658-34.219-62.801 10.195-131.725-72.515 23.901 9.698 23.507 8.346 49.162 13.984-2.386-1.559-75.805-50.443-107.715-91.47 12.671 5.279 59.723 37.501 26.389 4.167-21.884-21.884-20.558-21.947-43.056-44.444l9.722 11.111c-2.6-2.889-150-166.667-25-41.667 23.323 23.323 1.63-11.367-8.912-20.139l10.301 9.028c-28.586-32.159-99.28-80.89-54.167-58.333 60.565 30.283 207.61 190.944 120.833 104.167-.458-.458 5.556 5.556 4.167 6.944-.494.494 2.925 2.631 4.167 1.389 3.297-3.297-.928-17.594 9.722-6.944 1.399 1.399 17.361 17.361 15.278 19.444-1.505 1.505-3.009.579-1.389 1.389 3.795 1.897 2.766 2.766 37.5 37.5 79.929 79.929 207.869 55.095 212.5 45.833.441-.883 3.338 2.868 5.556 1.389 8.629-5.753 45.899-15.41 50-23.611 1.984-3.968 4.871 2.426 51.389-20.833 262.492-131.246 535.531-123.35 549.772-124.875-24.112 16.737-25.124 14.116-45.606 34.597Zm2402.778 63.889c63.32-18.996 56.028-33.491 109.722-51.389 113.772-37.924 316.215-178.391 347.222-168.056 9.833 3.278 160.72-56.458 256.473 85.984-31.977-4.821-50.508-19.727-56.473-13.762-2.431 2.431-16.669-2.316-18.056-2.778-25.035-8.345-80.706-.151-102.778-22.222-8.63-8.63-54.01-8.177-48.611-2.778 1.892 1.892-7.888-3.667-22.222 25-11.026 22.051-52.392 21.837-72.222 41.667-6.391 6.391-8.931.598-15.278 6.944-.6.6-42.299 24.368-38.889 27.778 4.672 4.672-6.065.51-61.111 55.556-33.493 33.493 12.472-30.5 12.5-30.556 8.279-16.557-16.211-7.4-175 151.389-15.077 15.077.679-10.432-2.778-13.889-.395-.395 46.274-64.33 1.389-19.444-56.422 56.422-65.89 53.554-61.111 58.333.429.429-42.437 36.73-44.444 34.722-.801-.801-.836 6.108-6.944 0l15.278-15.278c21.528-21.528 14.368-28.688 12.5-30.556-2.965-2.965-.401 5.756-44.444 27.778-62.404 31.202-63.836 26.336-68.056 30.556-11.405 11.405-5.3-12.244-1.389-8.333 5.556 5.556 43.859-32.748 47.222-36.111-134.673 53.869-137.397 46.138-216.493 36.979 3.635-1.485 26.264-10.728 46.135-16.767-73.724-7.627-72.943-4.893-147.582.969 4.072-1.655 37.575-18.599 59.85-25.282-8.918-.371-100.301-4.176-111.355 6.879-9.533 9.533-27.884-4.272-18.056 5.556 2.271 2.271-21.558 5.918-6.944-1.389 8.333-4.167 16.767-12.6 18.056-13.889 14.119-14.119 25.7-9.012 23.611-15.278-2.022-6.066-129.487 36.203-140.584 39.883 3.221-2.696 40.027-33.495 41.972-31.549 2.962 2.962 9.238-11.876-1.389-8.333-62.897 20.966-108.308 65-116.176 72.631 1.418-4.361 11.138-34.258 27.288-50.408 76.355-76.355-145.086 57.586-106.944 19.444 13.616-13.616 14.663-10.803 31.944-19.444 28.003-14.001-45.224 3.387-41.667 6.944 2.344 2.344-2.778-2.778-40.278 9.722-55.207 18.402-106.539 15.714-120.833 16.667 18.544-6.743 18.956-9.923 37.5-16.667-86.73-7.653-92.532-9.46-106.944-16.667-4.63-2.315-6.552-.393-6.944 0-1.332 1.332-5.413-7.749 5.556-5.556 25.479 5.096 19.478-7.622 18.056-8.333-4.055-2.028-3.856.104-54.167-16.667-5.805-1.935-43.75-14.583-66.667-37.5-6.04-6.04 76.145 20.017 30.556-2.778-22.813-11.406-92.509-142.931-47.222-75 130.361 195.541 456.882 72.191 481.944 84.722 10.373 5.187 157.012-54.234 162.5-59.722 2.725-2.725 14.491 1.782 51.389-16.667 18.043-9.021 42.129 8.795 27.778-5.556-3.127-3.127 27.491-.551 48.611-11.111 5.64-2.82 144.094-11.013 158.333-6.944 43.99 12.569 143.192-.243 155.533-1.837-20.195 13.463-18.344 14.151-38.866 32.392Zm3754.167 152.778c22.087-22.087 27.775-13.886 50-36.111.95-.95 15.46-2.96 51.389-38.889 6.276-6.276 33.333-33.333 91.667-62.5 5.556-2.778 85.589-29.455 93.056-31.944 16.776-5.592 125-41.667 220.833-9.722 57.427 19.142 486.649-23.534 515.278-19.444 13.908 1.987 152.302-20.358 150-18.056-11.998 11.998-98.958 66.146-41.667 37.5 29.63-14.815 35.321-9.123 33.333-11.111-2.987-2.987 2.275-1.138 47.222-23.611 11.182-5.591 6.574-21.204 15.278-12.5 5.556 5.556 28.507-17.396 30.556-19.444 4.093-4.093 14.541 2.126 31.944-15.278 6.944-6.944 94.438-36.109 102.778-38.889 8.182-2.727 89.583-29.861 100-40.278.595-.595 241.9-87.266 343.056 13.889 24.735 24.735 22.326 26.441 25 27.778 1.832.916-.406 2.372 16.667 19.444 22.222 22.222-15.458 3.382-16.667 2.778-78.171-39.085-92.165 1.519-165.278-47.222-35.436-23.624-76.622 26.156-70.833 31.944.671.671-.926-.926-11.111 4.167-.06.03-20.894-1.328-29.167 6.944-.82.82-1.683-1.936-13.889 4.167-13.799 6.899-14.616 1.058-29.167 8.333-10.398 5.199-94.444 47.222-123.611 76.389-15.898 15.898 12.959-34.263 18.056-29.167.393.393-.694-.694 4.167-5.556 68.333-68.333-129.73 99.436-123.611 105.556 1.214 1.214-92.945 81.834-61.111 50 13.605-13.605 3.009-19.676 16.667-33.333.916-.916 11.111-11.111 8.333-13.889-2.268-2.268 5.435-15.036 1.389-6.944-.567 1.133-1.541-1.236-12.5 9.722-65.833 65.833-144.365 100.736-158.333 106.944 29.167-29.167 42.949-54.435 45.833-59.722-18.383 6.685-101.434 70.014-244.93 82.832 3.001-1.37 152.331-69.558 29.652-28.665-6.17 2.057-210.973 27.014-162.5 2.778 1.52-.76 15.317 4.337 45.37-17.13-77.099 7.009-77.235 13.915-109.259 3.241-22.839-7.613-50.226 3.391-30.556-9.722 1.765-1.177 24.485 1.428 43.056-12.5-8.539-.316-60.052-2.224-106.468-8.492 38.46-15.444 46.317-16.028 39.802-19.286-3.921-1.961-4.763 4.018-54.167-8.333-1.797-.449-47.794 1.96-40.278-5.556 2.625-2.625 25.752-5.79 28.026-6.101-58.622-26.534-103.318 7.782-82.192-13.343 2.177-2.177 43.607-6.393 34.722-15.278-.258-.258-40.861-2.545-54.167 2.778-.701.28-27.611-2.944-34.722 4.167-3.602 3.602-28.506-10.428-9.722-4.167 1.761.587 37.227-20.275 41.667-18.056 6.966 3.483 9.273-10.999-1.389-8.333-1.78.445-104.589-2.356-115.278 8.333-.896.896-1.786-2.579-15.278 4.167-1.423.711-15.741 7.87-19.444 4.167-3.173-3.173-5.183-3.151-2.778-5.556 2.282-2.282 30.901-4.514 6.944-12.5-11.458-3.819-26.055 10.777-27.778 12.5-3.874 3.874-20.894-1.328-44.444 22.222-8.265 8.265-23.562-1.34-15.278 6.944.676.676-1.389-1.389-9.722 6.944-9.995 9.995-27.813-.035-18.056 9.722.676.676-1.389-1.389-9.722 6.944-5.342 5.342-.94-16.218 2.778-12.5.556.556 0 0 6.944-6.944 39.72-39.72-104.13 48.575-126.389 70.833 20.762-62.287-23.488 11.078-100 31.944Zm-787.5-238.889c-60.366-43.902-3.764-131.337 27.395-62.787-46.536-38.871-54.628 19.992-27.395 62.787m-4925 2.778c-68.103-52.969-.377-122.495 25-66.667-42.598-13.107-38.208 6.237-36.111 8.333 3.359 3.359-16.335 8.016 11.111 58.333Zm2466.667 8.333c-67.56-40.536 6.622-139.11 20.833-68.056.359 1.797-3.03-15.152-22.222-5.556-5.268 2.634-30.456 15.228 1.389 73.611Zm4911.111-5.556c5.838 0 8.184 12.425-2.778 6.944-.636-.318.502-.887-5.556-6.944-35.123-35.123 7.947-121.606 36.111-65.278.583 1.167 2.194-2.556 2.778-1.389 11.285 22.571-25.778-13.723-37.5 9.722-5.952 11.904 2.161 56.944 6.944 56.944Zm-7209.722-6.944c-41.581-9.596-49.693-39.854-34.722-36.111 10.926 2.732 12.02-7.879 30.556 1.389.916.458 12.037 6.019 8.333 9.722-.694.694 1.565 2.953 1.389 2.778-.703-.703 0 0-11.111-5.556-1.907-.953-21.647-2.202-9.722 9.722 8.501 8.501 5.899 9.719 15.278 18.056Zm4913.889-6.944c0 5.147 10.924 2.965 5.556 8.333-8.356 8.356-77.724-66.613-38.889-27.778 5.43 5.43-5.924-11.551 1.389-9.722 15.492 3.873 15.972-5.903 30.556 1.389 10.806 5.403 21.551 3.449 12.5 12.5-9.251 9.251-9.631-11.851-22.222-5.556-12.772 6.386 11.111 20.313 11.111 20.833Zm-2446.244-13.621c-55.381-8.863-4.197 21.006-5.145 21.954-17.285 17.285-54.663-40.526-37.5-31.944 4.081 2.041 13.991-11.009 23.611-1.389 1.254 1.254 2.276-1.042 19.034 11.379m-2420.423-11.379c4.483 1.121 43.651 10.913 51.389 26.389 7.372 14.744-47.603-23.739-51.389-26.389m-1583.333 1.389h-1.389v1.389h1.389c11.765 13.235 22.886 23.121 25 25v1.389h1.389v-1.389h-1.389c-11.765-13.235-22.886-23.121-25-25zm6551.389 26.389c0 16.027-85.039-45.992-29.167-18.056 2.455 1.227 29.167 14.583 29.167 18.056m-2461.111 4.167c0 3.081-1.74-.176-34.722-16.667-42.136-21.068 34.722-1.826 34.722 16.667m4827.305 17.405c-37.629-9.73-29.784-19.884-43.972-34.072-11.28-11.28 52.831-8.466 44.444 12.5-.095.238-18.334-17.5-23.611-6.944-4.064 8.128 20.168 25.585 23.138 28.517Zm43.528-31.294c26.25 0 45.943 28.132 48.611 31.944-22.1-13.26-27.634-10.968-48.611-31.944m-7322.222 41.667c-11.547 0-.853-23.895 16.667-18.056 6.253 2.084 11.827.673 6.944 5.556-1.99 1.99-4.183-4.151-13.889 5.556-3.611 3.611-2.923 6.364-2.778 6.944 1.507 6.029-1.723 0-6.944 0m2465.526 11.632c-12.302-21.206-4.134-33.714 17.808-22.743 2.067 1.033-13.116-6.558-17.808 22.743m2458.085-.521c-13.21 0-8.09-35.295 12.5-25 5.399 2.7 9.964 1.147 5.556 5.556-6.874 6.874-19.134-3.856-12.5 2.778.694.694-1.213 2.602-1.389 2.778-7.561 7.561-.712 13.889-4.167 13.889Zm2454.167 16.667c0-11.875-3.963-11.518 1.389-22.222 7.061-14.122 34.059 9.964 16.667 4.167-12.777-4.259-18.056 36.429-18.056 18.056Zm-7502.083 6.25c44.131-13.696 84.667 7.596 91.171 11.012-37.02-3.276-83.898-9.973-91.171-11.012m4912.153 1.736c16.813-2.936 45.083-13.348 59.375-3.819.384.256 18.001-1.443 31.944 12.5.855.855-84.02-7.925-91.319-8.681m-2453.778 5.523c47.66-14.242 48.874-12.139 95.056 8.386-47.147-9.877-46.91-7.476-95.056-8.386m-3977.125-1.009h-1.389v-1.389h1.389zl20.833 20.833h1.389v1.389h-1.389v-1.389zm8892.077 11.84c13.167-3.653 46.714-21.792 89.868 11.771-44.017-12.576-44.13-7.96-89.868-11.771m-2737.215 4.827c2.418 8.059 22.348 28.731 18.75 61.111-5.205 46.842-52.993 64.22-59.722 66.667 53.761-60.481 46.407-66.182 40.972-127.778m-3807.639 5.556h-1.389v-1.389h1.389zl19.444 19.444h1.389v1.389h-1.389v-1.389zm-1266.667 233.333c0 2.933 0-6.944 22.222-29.167 31.455-31.455 38.787-27.88 36.111-30.556-2.798-2.798 6.051 2.282 38.889-30.556 43.056-43.056 49.802-83.534 48.611-76.389-4.788 28.73-2.022 29.045-15.278 55.556-1.999 3.998-13.889 27.778-31.944 45.833-4.644 4.644-67.814 41.185-73.611 52.778-1.389 2.778-19.11 20.499-20.833 22.222-12.5 12.5-4.377-3.745-4.167-4.167v-5.556ZM4273.84 2949.87c5.933-6.389-8.582 59.832-14.113 54.301-1.56-1.56-.008 2.786-18.056 20.833-1.063 1.063-12.656-.156-8.333 4.167l-11.111-11.111c3.228 3.228 50.959-43.486 43.056-51.389-.622-.622 7.813-15.489 8.557-16.801M1452.2 3074.987c9.135-67.906 29.672-99.25 81.139-124.983-45.382 45.382-71.329 100.495-52.778 81.944 25.44-25.44 5.626 15.56 11.111 37.5.679 2.714 7.176 28.704 4.167 34.722-1.878 3.757 30.937 67.865 8.333 79.167-1.594.797-34.609 27.402-64.394 34.848 30.327 9.098 27.225 14.821 25.505 16.54-8.345 8.345-70.585-28.918-36.111 5.556 6.088 6.088 78.315 8.118 50 19.444-23.289 9.316-58.411-11.267-65.278-25-7.484-14.968-4.759-14.815-7.355-31.059 63.795 13.343 101.37-37.855 85.132-70.33-13.537-27.073-20.216-77.385-21.131-84.276-1.304 2.181-8.036 13.442-18.341 25.925Zm5042.25-122.379c-5.04 40.633-3.163 40.061-5.556 80.729-1.059 17.995 11.594 8.816 9.722 6.944-.916-.916 2.778 2.778 8.333 13.889 23.698 47.396 43.761 30.791 97.222 48.611 8.563 2.854 19.953-1.643 11.111 2.778-3.063 1.532-72.727 6.44-95.833-16.667-6.944-6.944-13.211-.677-12.5-1.389 3.226-3.226 1.545 14.045-6.944 5.556-53.384-53.384-11.991-133.614-5.556-140.451Zm2466.389 6.84c18.16 18.16 68.795 6.759 92.968 118.772-3.587-4.645-25.928-33.582-39.912-61.55-7.268-14.537-39.328-43.494-53.056-57.222m-4970.85 125.977c3.709-44.399.074-47.702-2.484-45.144-30.63 30.63 26.113-59.227 69.5-74.722-20.694 24.321-24.368 20.57-38.944 49.722-.646 1.292-18.056 36.111 0 18.056 2.351-2.351 2.125-8.085 2.778-4.167 13.119 78.711 86.408 82.491 68.056 91.667-.694.347-26.855-12.733-29.167-13.889-40.419-20.209-38.974-58.248-48.611-48.611-8.068 8.068-19.572 24.823-21.127 27.088Zm3804.461-4.866c4.504-1.802 54.784-21.914 56.944-20.833 1.305.653 30.796-17.815 31.944-16.667.142.142 16.134-11.378 16.667-11.111 1.852.926 37.165-34.387 40.278-37.5l25.463-25.463c-53.804 113.271-153.879 110.234-171.296 111.574M1104.172 3266.67c3.255-5.115 57.521-67.479 50-75-1.042-1.042 10.122-34.532 11.111-37.5 6.953-20.86.198-49.208 5.556-27.778 3.369 13.477-1.632 37.327 1.389 22.222 1.86-9.302 13.69-68.452-11.111-118.056-3.477-6.954-6.931-13.876-1.389-8.333 97.222 97.222-13.808 208.252-26.389 220.833-13.563 13.563-13.751 12.049-29.167 23.611Zm8344.444-161.111c-12.265 0 7.019-117.006 12.5-40.278 1.212 16.966-13.855 34.756-11.111 37.5 2.778 2.778-1.14 2.778-1.389 2.778m-1413.889 65.278c9.822-5.456 122.321-67.956 123.611-66.667 1.143 1.143 123.471-81.805 90.278-48.611-1.667 1.667-4.146-.857-17.122 15.996 61.003-10.718 87.931-35.447 193.511-9.052-10-.455-86.966-3.953-125 5.556-116.125 29.031-127.46 68.323-265.278 102.778m1380.556-56.944c-4.124 0-5.892 5.219-9.722 1.389-2.3-2.3 1.8-2.722 5.556-40.278 1.336-13.364 26.858 2.308 13.889 15.278-10.631 10.631.676 29.843-9.722 19.444-2.624-2.624.822 4.167 0 4.167Zm-6087.5 186.111c39.293-17.861 63.812-16.59 80.556-33.333 11.351-11.351 15.176-4.065 26.389-15.278.347-.347 8.463 5.686 2.778 0-4.135-4.135 8.391 2.72 56.944-45.833 14.201-14.201 12.662-17.894 13.889-16.667.457.457 37.908-57.925 33.333-62.5-3.472-3.472 2.206-9.15 2.778-9.722 12.32-12.32 10.957-45.251 13.538-39.256.965 4.823 10.305 51.525.351 61.478-2.209 2.209-22.903 35.063 11.111 18.056 16.286-8.143 42.547-31.179 151.389-16.667-85.114 9.727-87.136 2.596-143.056 30.556-71.591 35.795-123.261 119.417-250 129.167Zm2243.44-28.198c135.226-39.298 273.757-169.883 266.282-177.358-1.389-1.389 1.14-3.918 1.389-4.167 11.458-11.458 11.231-11.534 12.5-11.111 3.741 1.247-18.77 47.897-20.833 45.833-1.111-1.111.357 2.476-13.542 14.236 73.259-18.674 94.058-35.049 211.385-23.152-14.29.739-149.434 7.729-175.622 33.916-2.071 2.071-17.053-1.002-31.944 13.889-16.105 16.105-24.065.454-40.278 16.667-1.854 1.854-137.278 92.835-209.338 91.246Zm1042.623-137.702c76.831-26.83 129.485-67.703 101.437-39.655-13.824 13.824-12.069 15.062-29.167 23.611a3.15 3.15 0 0 0-1.389 1.389c-6.466 12.933-15.453 3.128-22.222 16.667-1.872 3.743-44.792-1.536-48.659-2.011Zm69.492 21.456c0 11.516-51.612-16.278-19.444-5.556 9.585 3.195 8.835-9.221 13.889-4.167 8.961 8.961 16.039-18.684 33.333-1.389 1.815 1.815-.197-4.363 1.389-2.778 8.797 8.797-10.221 7.443-18.056 15.278-5.381 5.381-11.111-9.389-11.111-1.389Zm-2659.079-19.58c21.547 71.482 97.531 71.042 64.634 76.524-10.994 1.832-47.95-16.734-55.556-31.944-10.61-21.22-9.674-21.316-9.079-44.58Zm75.745 48.747c0 15.31-55.849-23.685-27.778-16.667 27.778 6.944 27.778 14.075 27.778 16.667m3380.556 55.556c0 .805-18.619-.976-25-4.167-2.086-1.043 91.026-31.304 72.222-12.5-2.906 2.906-37.24 18.142-41.667 16.667-3.677-1.226-5.556-4.288-5.556 0Zm-3577.778 0c0-1.242-1.315.713-15.278-2.778-14.815-3.704-15.458-3.382-16.667-2.778-4.694 2.347-14.588-18.059 0-8.333 2.706 1.804 5.028-12.069 40.278 5.556 9.073 4.537-8.536 3.964-5.556 6.944.77.77-2.778 2.408-2.778 1.389Zm3555.556 29.167c0 3.994-17.607-9.11-6.944-5.556 4.379 1.46 143.59-44.712 59.722-2.778-40.528 20.264-52.778-3.829-52.778 8.333Zm-3525-6.944c0-.992-46.415 11.919-66.667-8.333-16.124-16.124 44.907 6.713 66.667-4.167 11.793-5.897 0 24.576 0 12.5m-2622.222 30.556c2.344 0-9.722 0-25-15.278-.579-.579-1.968.81-1.389 1.389l4.167 4.167c-3.535 3.535-21.927-35.816 1.389-12.5 10.731 10.731 90.199 17.508 29.167 23.611-2.127.213-1.471-.082-2.778-1.389zm6166.667-5.556c0-7.808 51.888-12.11 56.944-22.222 5.535-11.071 19.903 15.736 11.111 6.944-1.269-1.269-.45 3.238-20.833 8.333-41.749 10.437-47.222 16.047-47.222 6.944ZM1212.505 3406.95c0-1.407-20.818-11.096-33.333-23.611-22.231-22.231 37.567 13.822 34.722 16.667-2.654 2.654-2.952 2.691 0 4.167 9.492 4.746-1.389 3.504-1.389 2.778Zm-74.243-16.326c5.491-.303 40.126-2.211 61.743 30.215 9.062 13.593-5.182-4.082-61.743-30.215m28.41 38.548c-49.916-24.958-53.274-25.892-50-29.167 1.345-1.345 6.019-6.019 23.611 2.778 15.079 7.54 24.853 23.829 26.389 26.389m3843.056 16.667c-29.889 0 27.591-8.52 23.611-12.5-.916-.916 2.778 2.778 13.889-8.333 10.417-10.417 19.655-1.179 20.833 0 .694.694-5.052 6.441-5.556 6.944-13.889 13.889-48.412 13.889-52.778 13.889Zm-1857.367-11.775c55.126 4.97 64.887 47.073 61.534 43.72-4.27-4.27-7.926 1.228-61.534-43.72m48.879.973c11.276 10.068 20.217-.332 37.654 31.636-20.432-15.324-23.753-10.566-37.654-31.636m1797.377 38.58c0-3.179 34.596-5.43 48.611-19.444 1.301-1.301 1.688-.149 20.833-9.722 20.355-10.178 1.004 21.335-5.556 18.056-3.905-1.953-2.483 7.602-52.778 13.889-.909.114-11.111 1.389-11.111-2.778Zm-1826.268 10.266c-30.884-20.589-45.239-29.036-39.01-35.266 7.338-7.338 27.006 18.827 30.556 15.278 1.4-1.4 7.91 18.339 8.454 19.988m1859.601 6.401c0-7.735 18.212-4.324 27.778-13.889 1.021-1.021 1.483.647 16.667-6.944 1.07-.535 38.889-19.444 13.889 5.556-13.677 13.677-58.333 20.075-58.333 15.278Z"/></svg>